<?xml version="1.0" encoding="UTF-8"?>
<svg id="Ebene_2" data-name="Ebene 2" xmlns="http://www.w3.org/2000/svg" viewBox="0 0 484.57 621.3">
  <g id="Glyphs">
    <path d="M358.94,621.3H0l3.42-10.25c161.52-121.36,404.23-299.12,404.23-465.76,0-54.7-25.64-86.32-81.19-86.32-72.64,0-131.61,56.4-166.65,119.65l-8.55-6.84C184.6,93.15,255.53,0,359.79,0c73.5,0,124.77,41.88,124.77,119.65,0,88.88-52.13,158.1-155.54,252.97-83.75,76.92-178.61,143.58-229.89,180.32h205.11c71.79,0,92.3-30.77,114.52-68.37l11.96,4.27-71.79,132.46Z"/>
  </g>
</svg>