<?xml version="1.0" encoding="UTF-8"?>
<svg id="Ebene_2" data-name="Ebene 2" xmlns="http://www.w3.org/2000/svg" viewBox="0 0 421.98 627.29">
  <g id="Glyphs">
    <path d="M71.59,627.29c-43.58,0-79.48-17.09-70.08-52.99,4.27-17.95,15.38-32.48,38.46-32.48,37.6,0,38.46,64.1,87.17,64.1,73.5,0,176.05-60.68,176.05-181.18,0-76.06-56.4-104.26-127.34-104.26h-16.24l-1.71-5.13c108.54-52.13,189.72-107.68,189.72-200.83,0-41.88-26.49-62.39-70.08-62.39-49.57,0-93.15,25.64-126.48,69.22l-7.69-6.84C177.56,57.26,234.82,0,312.59,0c66.66,0,109.39,31.62,109.39,88.03,0,91.44-108.54,159.81-171.78,188.02,80.33,7.69,128.19,52.99,128.19,117.94,0,146.14-161.52,233.31-306.81,233.31Z"/>
  </g>
</svg>