<?xml version="1.0" encoding="UTF-8"?>
<svg id="Ebene_2" data-name="Ebene 2" xmlns="http://www.w3.org/2000/svg" viewBox="0 0 535.89 651.22">
  <g id="Glyphs">
    <path d="M465.81,106.83h-205.11l-81.19,181.18c19.66-9.4,52.13-14.53,74.35-14.53,92.3,0,136.74,53.84,133.32,138.45-5.13,130.76-143.58,239.29-284.59,239.29-54.7,0-104.26-17.09-102.55-57.26.85-24.79,17.09-41.88,40.17-41.88,53.84,0,17.95,82.04,92.3,82.04,95.72,0,172.63-100.84,177.76-194.85,3.42-67.51-29.06-103.41-83.75-103.41-50.42,0-76.06,23.93-101.7,55.55l-8.55-2.56L277.79,35.89h182.03c37.6,0,47.86-11.96,66.66-35.89l9.4,3.42c-15.38,20.51-42.73,62.39-70.08,103.41Z"/>
  </g>
</svg>