<?xml version="1.0" encoding="UTF-8"?>
<svg id="Ebene_2" data-name="Ebene 2" xmlns="http://www.w3.org/2000/svg" viewBox="0 0 470.89 626.43">
  <g id="Glyphs">
    <path d="M117.08,210.23C211.09,111.1,351.25,29.91,465.77,0l5.13,10.26c-97.43,39.31-222.2,121.36-309.37,241.86,20.51-6.84,47-11.11,73.5-11.11,97.43,0,150.41,67.51,150.41,153.83,0,113.66-109.39,231.6-243.56,231.6C50.42,626.43,0,556.35,0,464.06s47-179.47,117.08-253.82ZM306.81,387.14c0-69.22-25.64-129.9-96.57-129.9-19.66,0-48.71,5.13-64.1,18.8-62.39,64.95-81.19,166.65-81.19,233.31.85,65.8,30.77,103.41,82.04,103.41,84.61,0,159.81-100.84,159.81-225.62Z"/>
  </g>
</svg>