<?xml version="1.0" encoding="UTF-8"?>
<svg id="Ebene_2" data-name="Ebene 2" xmlns="http://www.w3.org/2000/svg" viewBox="0 0 456.37 626.43">
  <g id="Glyphs">
    <path d="M185.45,323.04c-50.42-37.6-80.33-85.46-80.33-142.72C105.12,72.64,220.49,0,322.19,0c92.3,0,134.17,43.59,134.17,100.84,0,83.75-73.5,137.59-187.16,196.56,43.58,29.91,95.72,76.06,95.72,146.14,0,107.68-111.1,182.89-224.76,182.89-84.61,0-140.16-39.31-140.16-107.68,0-78.62,68.37-138.45,185.45-195.71ZM147.85,611.9c97.43,0,148.7-84.61,148.7-139.3,0-62.39-35.89-98.28-99.99-141.01-95.72,52.13-142.72,129.05-142.72,191.43,0,56.4,35.04,88.88,94.01,88.88ZM256.38,288.86c84.61-40.17,148.7-113.66,148.7-189.72,0-46.15-24.78-84.61-85.46-84.61-88.03,0-150.41,64.1-150.41,139.3,0,64.95,47.86,108.54,87.17,135.03Z"/>
  </g>
</svg>