<?xml version="1.0" encoding="UTF-8"?>
<svg id="Ebene_2" data-name="Ebene 2" xmlns="http://www.w3.org/2000/svg" viewBox="0 0 453.8 634.98">
  <g id="Glyphs">
    <path d="M0,624.72c97.43-39.31,205.11-129.9,292.28-250.4-20.51,6.84-47,11.11-73.5,11.11-97.43,0-150.41-67.51-150.41-153.83C68.37,117.94,175.2,0,309.37,0c91.44,0,144.43,70.08,144.43,162.38,0,219.64-268.35,420.47-448.67,472.6l-5.13-10.26ZM243.57,369.19c19.66,0,44.44-4.27,59.82-17.95,67.51-67.51,85.46-167.5,85.46-234.16-.85-65.81-30.77-103.41-82.04-103.41-84.61,0-159.81,100.84-159.81,225.62,0,69.22,25.64,129.9,96.57,129.9Z"/>
  </g>
</svg>