<?xml version="1.0" encoding="UTF-8"?>
<svg id="Ebene_2" data-name="Ebene 2" xmlns="http://www.w3.org/2000/svg" viewBox="0 0 395.69 414.49">
  <g id="Glyphs">
    <path d="M0,358.94C0,212.8,166.65,4.27,275.19,4.27c23.93,0,41.02,14.53,48.71,28.2l5.13-13.67L390.56,0h5.13l-96.57,251.26c-13.67,36.75-34.18,97.43-30.77,106.83,20.51-5.13,72.64-59.82,95.72-84.61l5.98,5.98c-23.07,36.75-113.66,135.03-153.83,135.03-16.24,0-22.22-8.55-22.22-23.93,0-19.66,23.93-78.62,41.02-127.34l-3.42-.85c-37.6,53.84-126.48,152.12-186.31,152.12-34.18,0-45.29-25.64-45.29-55.55ZM247.84,211.09c32.48-62.39,51.28-115.37,51.28-141.01,0-29.06-10.26-51.28-39.31-51.28-70.93,0-189.72,233.31-189.72,310.23,0,24.78,1.71,37.6,25.64,37.6,28.2,0,101.7-58.11,152.12-155.54Z"/>
  </g>
</svg>