<?xml version="1.0" encoding="UTF-8"?>
<svg id="Ebene_2" data-name="Ebene 2" xmlns="http://www.w3.org/2000/svg" viewBox="0 0 720.44 625.58">
  <g id="Glyphs">
    <path d="M2.56,617.03c22.22-.85,84.61-6.84,194.85-123.92,148.7-157.25,235.87-246.13,428.16-446.96l7.69-13.67L712.75,0l7.69,5.13c-25.64,71.79-90.59,269.2-106.83,316.21l-62.39,187.16c-7.69,23.07-18.8,60.68-18.8,78.62,0,16.24,41.88,26.49,70.93,29.91l-2.56,8.55h-248.69l2.56-8.55c33.33-2.56,59.82-12.82,78.62-31.62,7.69-7.69,21.37-42.73,31.62-70.93,19.66-52.99,37.6-104.26,53.84-152.98h-172.63c-49.57,53.84-89.73,96.57-110.25,120.5-44.44,50.42-68.37,85.46-68.37,100.84,0,26.49,35.04,30.77,62.39,34.18l-2.56,8.55H0l2.56-8.55ZM525.59,342.7c36.75-107.68,68.37-201.69,93.15-269.2-85.46,88.88-179.47,188.01-255.53,269.2h162.38Z"/>
  </g>
</svg>