<?xml version="1.0" encoding="UTF-8"?>
<svg id="Ebene_2" data-name="Ebene 2" xmlns="http://www.w3.org/2000/svg" viewBox="0 0 338.43 624.72">
  <g id="Glyphs">
    <path d="M0,557.21c0-41.02,16.24-84.61,29.06-122.21L179.47,15.38l-57.26-5.13V0h128.19l-106.83,299.97,2.56.85c35.04-48.71,85.46-90.59,121.35-90.59,44.44,0,70.93,29.91,70.93,89.73,0,125.63-146.99,324.75-264.93,324.75-43.58,0-73.5-27.35-73.5-67.51ZM271.77,275.19c0-31.62-8.55-42.73-23.07-42.73-31.62,0-97.43,56.4-133.32,145.28-29.91,72.64-56.4,151.27-56.4,194,0,22.22,12.82,38.46,37.6,38.46,70.93,0,175.2-235.02,175.2-335.01Z"/>
  </g>
</svg>