<?xml version="1.0" encoding="UTF-8"?>
<svg id="Ebene_2" data-name="Ebene 2" xmlns="http://www.w3.org/2000/svg" viewBox="0 0 595.67 619.6">
  <g id="Glyphs">
    <path d="M0,616.18l2.56-8.55c43.59-3.42,65.81-12.82,84.61-31.62,7.69-7.69,21.37-43.58,31.62-70.93,27.35-74.35,58.97-170.07,66.66-193.14,25.64-74.35,44.44-129.9,68.37-204.25,5.13-16.24,11.96-38.46,11.96-53.84,0-37.6-41.88-43.58-70.08-44.44l3.42-8.55c52.99,0,150.41-.85,211.94-.85,117.08,0,184.6,54.7,184.6,135.03,0,118.79-103.41,165.79-184.6,178.61,58.11,15.38,132.47,58.11,132.47,143.58,0,123.92-126.48,162.38-238.44,162.38-55.55,0-169.21-3.42-305.1-3.42ZM455.51,435c0-49.57-36.75-103.41-88.03-108.54-36.75-3.42-66.66-3.42-104.26-3.42l-86.32,264.93c18.8,8.55,45.29,17.95,97.43,17.95,105.97,0,181.18-63.24,181.18-170.92ZM363.21,305.95c88.03-6.84,149.56-98.28,149.56-170.92,0-58.97-25.64-121.36-102.55-121.36-18.8,0-35.04,3.42-47,10.26l-94.86,285.44c37.6,0,73.5-1.71,94.86-3.42Z"/>
  </g>
</svg>