<?xml version="1.0" encoding="UTF-8"?>
<svg id="Ebene_2" data-name="Ebene 2" xmlns="http://www.w3.org/2000/svg" viewBox="0 0 288.86 414.49">
  <g id="Glyphs">
    <path d="M0,323.04C0,193.14,111.1,0,225.62,0c47,0,63.24,28.2,63.24,48.71,0,23.07-16.24,33.33-29.06,33.33-15.38,0-28.2-6.84-28.2-30.77,0-17.95-.85-38.46-16.24-38.46-38.46,0-145.28,170.07-145.28,307.66,0,35.04,6.84,56.4,30.77,56.4,45.29,0,82.9-48.71,114.52-102.55l9.4,5.13c-23.93,55.55-89.73,135.03-163.23,135.03-30.77,0-61.53-29.06-61.53-91.44Z"/>
  </g>
</svg>