<?xml version="1.0" encoding="UTF-8"?>
<svg id="Ebene_2" data-name="Ebene 2" xmlns="http://www.w3.org/2000/svg" viewBox="0 0 565.75 631.56">
  <g id="Glyphs">
    <path d="M0,411.92C0,212.8,182.03,0,399.1,0c78.62,0,117.94,29.91,135.03,41.02l23.07-24.78,8.55,2.56-50.42,184.6-12.82-1.71c1.71-12.82,3.42-46.15,3.42-55.55,0-29.06-14.53-131.61-104.26-131.61-154.69,0-315.35,211.09-315.35,422.18,0,119.65,56.4,175.2,135.03,175.2,116.23,0,183.74-85.46,241-223.05l11.96,4.27-68.37,229.04h-11.11v-78.62c-43.59,48.71-114.52,88.02-194.85,88.02C71.79,631.56,0,534.99,0,411.92Z"/>
  </g>
</svg>