<?xml version="1.0" encoding="UTF-8"?>
<svg id="Ebene_2" data-name="Ebene 2" xmlns="http://www.w3.org/2000/svg" viewBox="0 0 447.82 624.72">
  <g id="Glyphs">
    <path d="M0,569.17C0,423.03,147.85,213.65,251.26,213.65c27.35,0,45.29,14.53,52.99,29.06L371.76,28.2c2.56-6.84-.85-11.11-6.84-11.96l-47-6.84V0h129.9c-46.15,134.17-111.95,338.43-152.12,463.2-11.11,35.04-29.91,88.03-29.91,98.28,0,5.98.85,9.4,5.98,9.4,11.96,0,73.5-59.82,95.72-87.17l5.98,5.98c-23.07,38.46-110.25,135.03-152.98,135.03-17.95,0-24.78-10.26-24.78-23.93,0-21.37,20.51-81.19,35.04-130.76l-2.56-2.56c-38.46,55.55-121.36,157.25-181.18,157.25-34.18,0-47-23.93-47-55.55ZM241,421.32c29.91-57.26,41.88-115.37,41.88-139.3,0-30.77-16.24-55.55-39.31-55.55-66.66,0-172.63,237.58-172.63,314.5,0,24.78,3.42,36.75,22.22,36.75,35.04,0,102.55-70.08,147.85-156.39Z"/>
  </g>
</svg>