<?xml version="1.0" encoding="UTF-8"?>
<svg id="Ebene_2" data-name="Ebene 2" xmlns="http://www.w3.org/2000/svg" viewBox="0 0 692.24 619.59">
  <g id="Glyphs">
    <path d="M0,615.32l2.56-8.55c43.59-3.42,65.81-12.82,84.61-31.62,7.69-7.69,21.37-43.59,31.62-70.93,27.35-74.35,58.97-170.07,66.66-193.14,25.64-74.35,44.44-129.9,68.37-204.25,5.13-16.24,11.96-38.46,11.96-53.84,0-37.6-41.88-43.59-70.08-44.44l3.42-8.55h212.8c170.92,0,280.31,106.83,280.31,265.79,0,186.31-141.01,353.81-373.47,353.81-115.37,0-209.38-4.27-318.77-4.27ZM607.63,242.71c0-164.94-112.81-229.89-188.02-229.89-20.51,0-42.73,5.13-48.71,11.11-7.69,7.69-24.78,58.97-44.44,116.23-19.66,57.26-40.17,114.52-58.97,170.07l-61.53,188.02c-8.55,26.49-17.95,57.26-17.95,70.08,0,23.93,29.91,36.75,76.92,36.75,216.22,0,342.7-161.52,342.7-362.36Z"/>
  </g>
</svg>