<?xml version="1.0" encoding="UTF-8"?>
<svg id="Ebene_2" data-name="Ebene 2" xmlns="http://www.w3.org/2000/svg" viewBox="0 0 286.3 414.49">
  <g id="Glyphs">
    <path d="M0,336.72C0,199.12,120.5,0,230.75,0c45.29,0,55.55,26.49,55.55,46.15,0,42.73-35.89,105.12-199.12,164.09-14.53,40.17-20.51,76.92-20.51,99.99,0,39.31,11.96,55.55,43.59,55.55,42.73,0,82.04-35.89,114.52-90.59l9.4,5.13c-23.93,51.28-101.7,134.17-171.78,134.17-30.77,0-62.39-19.66-62.39-77.77ZM231.6,53.84c0-25.64-11.11-37.6-23.07-37.6-29.06,0-88.03,95.72-117.08,181.18,99.13-40.17,140.16-86.32,140.16-143.58Z"/>
  </g>
</svg>