<?xml version="1.0" encoding="UTF-8"?>
<svg id="Ebene_2" data-name="Ebene 2" xmlns="http://www.w3.org/2000/svg" viewBox="0 0 654.63 615.32">
  <g id="Glyphs">
    <path d="M2.56,606.78c43.59-3.42,65.81-12.82,84.61-31.62,7.69-7.69,21.37-43.58,31.62-70.93,27.35-74.35,58.97-170.07,66.66-193.14,25.64-74.35,44.44-129.9,68.37-204.25,5.13-16.24,11.96-38.46,11.96-53.84,0-37.6-41.88-43.58-70.08-44.44l3.42-8.55h455.51v139.3l-8.55,2.56c-20.51-40.17-64.95-115.37-78.62-119.65-22.22-6.84-60.68-9.4-94.01-9.4-38.46,0-85.46,4.27-106.83,5.98l-91.44,270.06h41.88c119.65,0,171.78-97.43,185.45-133.32l10.26,3.42-92.3,295.7-9.4-1.71c1.71-15.38,2.56-26.49,2.56-40.17,0-20.51,3.42-110.25-86.32-110.25h-56.4c-21.37,70.08-40.17,120.5-64.95,195.71-7.69,23.93-21.37,78.62-27.35,104.26l250.4-5.13c30.77-.85,111.1-86.32,165.79-143.58l7.69,4.27-54.7,157.25H0l2.56-8.55Z"/>
  </g>
</svg>