<?xml version="1.0" encoding="UTF-8"?>
<svg id="Ebene_2" data-name="Ebene 2" xmlns="http://www.w3.org/2000/svg" viewBox="0 0 636.69 818.72">
  <g id="Glyphs">
    <path d="M0,765.73c0-14.53,11.96-30.77,32.48-30.77,29.06,0,30.77,23.07,36.75,36.75,5.98,14.53,10.26,32.48,28.2,32.48,39.31,0,76.92-99.14,97.43-161.52,34.18-105.97,75.21-236.73,118.79-390.56h-73.5l20.51-31.62h64.1C362.36,116.23,423.89,0,533.28,0c95.72,0,103.41,52.99,103.41,64.1,0,15.38-7.69,36.75-34.18,36.75-33.33,0-31.62-18.8-38.46-36.75-9.4-24.78-18.8-48.71-42.73-48.71-56.4,0-97.43,105.12-129.05,205.11h95.72l-22.22,31.62h-82.9c-29.91,97.43-84.61,282.88-124.77,383.72-29.06,72.64-94.01,182.89-180.32,182.89-52.13,0-77.77-25.64-77.77-52.99Z"/>
  </g>
</svg>