<?xml version="1.0" encoding="UTF-8"?>
<svg id="Ebene_2" data-name="Ebene 2" xmlns="http://www.w3.org/2000/svg" viewBox="0 0 646.94 615.32">
  <g id="Glyphs">
    <path d="M2.56,606.78c43.59-3.42,65.81-12.82,84.61-31.62,7.69-7.69,21.37-43.59,31.62-70.93,27.35-74.35,58.97-170.07,66.66-193.14,25.64-74.35,44.44-129.9,68.37-204.25,5.13-16.24,11.96-38.46,11.96-53.84,0-37.6-41.88-43.59-70.08-44.44l3.42-8.55h447.82v139.3l-8.55,2.56c-23.07-41.88-68.37-131.61-101.7-129.9l-170.07,6.84-93.15,276.9h45.29c126.48,0,177.76-95.72,191.43-131.61l10.26,3.42-92.3,295.7-9.4-1.71c1.71-16.24,2.56-28.2,2.56-40.17,0-20.51,3.42-111.95-88.03-111.95h-64.95l-62.39,188.87c-9.4,28.2-18.8,57.26-18.8,70.08,0,23.93,38.46,35.04,69.22,38.46l-2.56,8.55H0l2.56-8.55Z"/>
  </g>
</svg>