<?xml version="1.0" encoding="UTF-8"?>
<svg id="Ebene_2" data-name="Ebene 2" xmlns="http://www.w3.org/2000/svg" viewBox="0 0 438.42 611.9">
  <g id="Glyphs">
    <path d="M0,483.71c0-50.42,47.86-88.88,147.85-106.83-29.06-23.07-52.99-41.88-52.99-73.5s34.18-53.84,83.75-51.28c-25.64-20.51-42.73-58.97-42.73-96.57C135.88,82.04,205.11.85,286.3.85c23.07,0,43.58,9.4,57.26,26.49,20.51-15.38,38.46-27.35,59.82-27.35,24.78,0,35.04,11.96,35.04,23.93,0,14.53-7.69,29.06-23.93,29.06-24.78,0-23.07-27.35-37.6-27.35-10.25,0-17.09,2.56-28.2,9.4,11.96,17.09,17.09,39.31,17.09,59.82,0,64.1-49.57,169.21-152.98,169.21-6.84,0-15.38-2.56-21.37-5.13-28.2,2.56-39.31,14.53-39.31,27.35,0,13.67,12.82,24.78,29.91,38.46,27.35,22.22,99.14,76.06,121.35,96.57,27.35,24.78,50.42,61.53,50.42,90.59,0,69.22-72.64,99.99-149.56,99.99C93.15,611.9,0,564.05,0,483.71ZM288.86,527.3c0-25.64-17.09-51.28-39.31-70.93-24.78-21.37-64.1-50.42-93.15-72.64-58.11,27.35-97.43,72.64-97.43,111.95,0,54.7,69.22,99.99,138.45,99.99,59.82,0,91.44-29.91,91.44-68.37ZM323.04,57.26c0-29.06-5.13-41.88-28.2-41.88-48.71,0-111.1,125.63-111.1,190.58,0,35.04,5.98,44.44,21.37,44.44,43.58,0,117.94-131.61,117.94-193.14Z"/>
  </g>
</svg>