<?xml version="1.0" encoding="UTF-8"?>
<svg id="Ebene_2" data-name="Ebene 2" xmlns="http://www.w3.org/2000/svg" viewBox="0 0 585.41 631.56">
  <g id="Glyphs">
    <path d="M0,401.67C0,246.13,149.56,0,387.14,0c99.99,0,141.87,37.6,161.52,53.84l28.2-26.49,8.55,2.56-43.59,183.74-11.11-1.71c1.71-12.82,2.56-30.77,2.56-40.17,0-35.04-23.07-156.39-136.74-156.39-159.81,0-312.79,232.46-312.79,429.87,0,95.72,50.42,171.78,141.87,171.78,47,0,100.84-17.95,127.34-58.97,11.11-17.09,17.09-35.89,27.35-70.93,5.13-16.24,11.11-41.02,11.11-56.4,0-39.31-47.86-43.58-76.06-44.44l3.42-8.55h239.29l-3.42,8.55c-18.8,2.56-45.29,1.71-69.22,29.91-13.67,16.24-22.22,46.15-32.47,80.33-9.4,29.91-18.8,63.24-25.64,88.03-79.48,35.89-140.16,47-197.42,47C81.19,631.56,0,549.52,0,401.67Z"/>
  </g>
</svg>