<?xml version="1.0" encoding="UTF-8"?>
<svg id="Ebene_2" data-name="Ebene 2" xmlns="http://www.w3.org/2000/svg" viewBox="0 0 376.03 624.72">
  <g id="Glyphs">
    <path d="M197.42,598.23c0-24.78,6.84-44.44,12.82-61.53,14.53-39.31,64.1-161.52,74.35-192.29,10.26-31.62,18.8-53.84,18.8-66.66,0-10.26-.85-18.8-11.11-18.8-14.53,0-37.6,14.53-53.84,29.91-41.02,39.31-85.46,88.88-100.84,130.76-11.11,29.91-44.44,126.48-70.08,200.83H0L205.96,46.15c5.13-13.67,5.98-24.78,5.13-29.91l-50.42-6.84V0h128.19l-128.19,356.37,2.56.85c61.53-89.73,141.87-146.99,183.74-146.99,19.66,0,29.06,22.22,29.06,40.17s-6.84,44.44-17.09,70.93l-94.86,252.97h2.56c27.35-16.24,71.79-58.11,101.7-89.73l5.98,5.98c-17.95,26.49-110.24,134.17-146.99,134.17-17.95,0-29.91-13.67-29.91-26.49Z"/>
  </g>
</svg>