<?xml version="1.0" encoding="UTF-8"?>
<svg id="Ebene_2" data-name="Ebene 2" xmlns="http://www.w3.org/2000/svg" viewBox="0 0 804.19 615.32">
  <g id="Glyphs">
    <path d="M2.56,606.78c43.58-3.42,65.8-12.82,84.61-31.62,7.69-7.69,21.37-43.59,31.62-70.93,27.35-74.35,58.97-170.07,66.66-193.14,25.64-74.35,44.44-129.9,68.37-204.25,5.13-16.24,11.96-38.46,11.96-53.84,0-37.6-41.88-43.59-70.08-44.44l3.42-8.55h246.98l-3.42,8.55c-28.2,3.42-49.57,5.98-75.21,35.89-13.67,16.24-29.06,62.39-41.02,95.72l-52.99,153.83h275.19c25.64-73.5,39.31-112.81,63.24-187.16,5.13-14.53,11.96-41.02,11.96-53.84,0-37.6-41.88-43.59-70.08-44.44l3.42-8.55h246.98l-3.42,8.55c-28.2,3.42-52.13,11.11-75.21,36.75-13.67,15.38-29.06,61.53-41.02,94.86-19.66,57.26-29.06,88.88-48.71,146.14-29.06,83.75-43.59,127.34-71.79,211.94-8.54,24.78-18.8,58.11-18.8,70.93,0,23.93,38.46,34.18,67.51,37.6l-2.56,8.55h-252.11l2.56-8.55c43.58-3.42,65.81-12.82,84.61-31.62,7.69-7.69,21.37-43.59,31.62-70.93,27.35-74.35,58.11-169.21,66.66-193.14h-276.04l-61.53,187.16c-8.55,26.49-18.8,57.26-18.8,70.08,0,23.93,36.75,35.04,67.52,38.46l-2.56,8.55H0l2.56-8.55Z"/>
  </g>
</svg>