<?xml version="1.0" encoding="UTF-8"?>
<svg id="Ebene_2" data-name="Ebene 2" xmlns="http://www.w3.org/2000/svg" viewBox="0 0 250.4 604.21">
  <g id="Glyphs">
    <path d="M0,581.14c0-19.66,11.11-47,17.95-64.1,15.38-39.31,47-112.81,64.1-156.39,24.78-62.39,42.73-104.26,42.73-114.52,0-7.69-.85-7.69-5.13-7.69-11.11,0-49.57,36.75-88.03,78.62l-6.84-5.98c47-66.66,113.66-121.36,141.87-121.36,14.53,0,28.2,13.67,28.2,32.48,0,21.37-15.38,65.81-32.48,106.83l-93.15,229.04,2.56,2.56c32.47-17.95,82.9-66.66,107.68-91.44l5.98,6.84c-17.09,28.2-110.25,128.19-155.54,128.19-19.66,0-29.91-11.96-29.91-23.07ZM167.5,43.59c0-25.64,18.8-43.59,41.88-43.59s41.02,18.8,41.02,41.88-18.8,41.88-41.88,41.88-41.02-17.09-41.02-40.17Z"/>
  </g>
</svg>