<?xml version="1.0" encoding="UTF-8"?>
<svg id="Ebene_2" data-name="Ebene 2" xmlns="http://www.w3.org/2000/svg" viewBox="0 0 451.24 615.32">
  <g id="Glyphs">
    <path d="M2.56,606.78c43.59-3.42,68.37-12.82,87.17-31.62,7.69-7.69,21.37-43.59,31.62-70.93,27.35-74.35,58.97-170.07,66.66-193.14,25.64-74.35,44.44-129.9,68.37-204.25,5.13-16.24,11.96-38.46,11.96-53.84,0-37.6-44.44-43.59-72.64-44.44l3.42-8.55h252.11l-3.42,8.55c-28.2,3.42-51.28,6.84-77.77,36.75-13.67,15.38-29.06,61.53-41.02,94.86l-58.97,170.92c-15.38,45.29-39.31,121.36-61.53,187.16-8.55,24.78-18.8,58.11-18.8,70.93,0,23.93,41.02,34.18,70.08,37.6l-2.56,8.55H0l2.56-8.55Z"/>
  </g>
</svg>