<?xml version="1.0" encoding="UTF-8"?>
<svg id="Ebene_2" data-name="Ebene 2" xmlns="http://www.w3.org/2000/svg" viewBox="0 0 440.13 798.21">
  <g id="Glyphs">
    <path d="M0,745.22c0-14.53,13.67-30.77,34.18-30.77,29.06,0,30.77,23.07,35.89,36.75,5.13,15.38,11.11,32.48,28.2,32.48,39.31,0,76.06-94.01,99.99-161.52,34.18-94.01,64.95-192.29,105.12-326.46,4.27-14.53,9.4-40.17,9.4-45.29,0-7.69-1.71-8.55-5.98-8.55-10.25,0-50.42,41.88-94.86,101.7l-6.84-5.98c47.86-85.46,126.48-147.85,154.68-147.85,15.38,0,25.64,13.67,26.49,31.62,0,20.51-11.96,65.81-24.78,105.97-17.95,56.4-53.84,188.02-95.72,288.01-31.62,74.35-101.7,182.89-188.01,182.89-52.13,0-77.77-24.78-77.77-52.99ZM357.23,43.59c0-25.64,18.8-43.59,41.88-43.59s41.02,18.8,41.02,41.88-18.8,41.88-41.88,41.88-41.02-17.09-41.02-40.17Z"/>
  </g>
</svg>