<?xml version="1.0" encoding="UTF-8"?>
<svg id="Ebene_2" data-name="Ebene 2" xmlns="http://www.w3.org/2000/svg" viewBox="0 0 504.22 623.01">
  <g id="Glyphs">
    <path d="M0,542.68c0-35.04,24.78-59.82,51.28-59.82,28.2,0,43.58,17.95,43.58,41.02s-17.09,42.73-34.18,42.73c-10.26,0-16.24-.85-20.51-3.42,5.13,27.35,16.24,47.86,52.99,47.86,42.73,0,71.79-47.86,91.44-102.55,27.35-75.21,55.55-171.78,63.24-194.85,24.78-74.35,40.17-132.47,63.24-206.82,5.13-16.24,11.11-38.46,11.11-53.84-.85-37.6-45.29-43.59-73.5-44.44l3.42-8.55h252.11l-3.42,8.55c-28.2,3.42-51.28,6.84-76.92,36.75-13.67,15.38-28.2,61.53-39.31,94.86-22.22,67.51-39.31,126.48-54.7,173.49-14.53,45.29-30.77,104.26-53.84,170.07-23.93,69.22-73.5,139.3-174.34,139.3-57.26,0-101.7-30.77-101.7-80.33Z"/>
  </g>
</svg>