<?xml version="1.0" encoding="UTF-8"?>
<svg id="Ebene_2" data-name="Ebene 2" xmlns="http://www.w3.org/2000/svg" viewBox="0 0 391.41 624.72">
  <g id="Glyphs">
    <path d="M205.11,585.41c-18.8-47.86-25.64-78.62-47-158.96l-23.07-1.71-67.51,195.71H0L205.96,46.15c5.13-13.67,5.98-24.78,5.13-29.91l-50.42-6.84V0h128.19l-125.63,350.39,3.42,1.71c53.84-76.06,130.76-141.87,172.63-141.87,33.33,0,52.13,20.51,52.13,56.4s-34.19,107.68-169.21,143.58c14.53,54.7,28.2,104.26,37.6,129.05,8.55,23.07,17.09,36.75,29.06,36.75,18.8,0,52.13-37.6,73.5-67.51l7.69,6.84c-29.91,45.29-82.9,109.39-125.63,109.39-20.51,0-29.91-14.53-39.31-39.31ZM294.84,359.79c16.24-13.67,39.31-40.17,39.31-62.39,0-29.06-13.67-37.6-33.33-37.6-33.33,0-103.41,47.86-166.65,156.39,59.82-1.71,128.19-29.91,160.67-56.4Z"/>
  </g>
</svg>