<?xml version="1.0" encoding="UTF-8"?>
<svg id="Ebene_2" data-name="Ebene 2" xmlns="http://www.w3.org/2000/svg" viewBox="0 0 706.77 615.32">
  <g id="Glyphs">
    <path d="M2.56,606.78c43.58-3.42,65.81-12.82,84.61-31.62,7.69-7.69,21.37-43.59,31.62-70.93,27.35-74.35,58.97-170.07,66.66-193.14,25.64-74.35,44.44-129.9,68.37-204.25,5.13-16.24,11.96-38.46,11.96-53.84,0-37.6-41.88-43.58-70.08-44.44l3.42-8.55h246.98l-3.42,8.55c-28.2,3.42-49.57,5.98-75.21,35.89-13.67,16.24-29.06,62.39-41.02,95.72-18.8,55.55-45.29,130.76-63.24,180.32,99.99-85.46,217.07-186.31,246.13-214.51,30.77-29.91,56.4-54.7,57.26-70.93,0-14.53-27.35-20.51-54.7-26.49l3.42-8.55h191.43l-3.42,8.55c-57.26,13.67-84.61,24.78-152.98,82.9-35.89,29.91-116.23,99.99-197.42,170.07,58.97,123.06,122.21,252.97,128.19,264.08,33.33,68.37,47.86,70.93,95.72,81.19l-2.56,8.55h-237.58l2.56-8.55c43.59-3.42,69.22-7.69,69.22-36.75,0-15.38-70.93-157.25-120.5-254.68l-33.33,29.91c-19.66,58.11-26.49,83.75-48.71,152.98-8.55,26.49-18.8,57.26-18.8,70.08,0,23.93,36.75,35.04,67.51,38.46l-2.56,8.55H0l2.56-8.55Z"/>
  </g>
</svg>