<?xml version="1.0" encoding="UTF-8"?>
<svg id="Ebene_2" data-name="Ebene 2" xmlns="http://www.w3.org/2000/svg" viewBox="0 0 576.01 615.32">
  <g id="Glyphs">
    <path d="M2.56,606.78c43.58-3.42,65.81-12.82,84.61-31.62,7.69-7.69,21.37-43.58,31.62-70.93,27.35-74.35,58.97-170.07,66.66-193.14,25.64-74.35,44.44-129.9,68.37-204.25,5.13-16.24,11.96-38.46,11.96-53.84,0-37.6-41.88-43.58-70.08-44.44l3.42-8.55h246.98l-3.42,8.55c-28.2,3.42-49.57,5.98-75.21,35.89-13.67,16.24-29.06,61.53-41.02,94.86-19.66,55.55-44.44,126.48-58.97,171.78l-93.15,285.44,243.57,5.13,150.41-167.5,7.69,4.27-62.39,176.91H0l2.56-8.55Z"/>
  </g>
</svg>