<?xml version="1.0" encoding="UTF-8"?>
<svg id="Ebene_2" data-name="Ebene 2" xmlns="http://www.w3.org/2000/svg" viewBox="0 0 580.28 415.34">
  <g id="Glyphs">
    <path d="M391.41,390.56c0-19.66,8.55-44.44,15.38-61.53,16.24-40.17,56.4-141.87,72.64-176.91,13.67-29.91,29.91-76.92,29.91-89.73,0-10.26-1.71-14.53-11.96-14.53-41.02,0-127.34,95.72-156.39,162.38-31.62,74.35-58.11,130.76-85.46,200.83h-67.51c49.57-108.54,108.54-260.66,119.65-301.68,9.4-34.18,10.26-46.15,10.26-58.97,0-10.26-2.56-15.38-12.82-15.38-41.88,0-111.1,85.46-140.16,146.14-17.95,37.6-67.51,159.81-96.57,229.89H0c41.88-94.01,81.19-192.29,96.57-238.44,21.37-63.24,31.62-89.73,31.62-105.12,0-8.55-.85-10.25-6.84-10.25-13.67,0-46.15,36.75-89.73,88.02l-6.84-5.98C76.91,62.39,140.16,0,170.92,0c11.11,0,20.51,8.55,20.51,24.78,0,38.46-9.4,75.21-32.48,135.03l2.56.85C216.22,72.64,281.17.85,335.86.85c31.62,0,44.44,20.51,44.44,52.13,0,21.37-21.37,84.61-35.04,120.5l2.56.85C411.92,76.92,490.55.85,548.66.85c21.37,0,31.62,16.24,31.62,39.31,0,19.66-5.13,43.59-16.24,70.93l-105.12,253.82,1.71,2.56c34.18-17.95,92.3-81.19,112.81-108.54l6.84,5.98c-28.2,51.28-124.77,150.41-161.52,150.41-17.95,0-27.35-13.67-27.35-24.78Z"/>
  </g>
</svg>