<?xml version="1.0" encoding="UTF-8"?>
<svg id="Ebene_2" data-name="Ebene 2" xmlns="http://www.w3.org/2000/svg" viewBox="0 0 928.11 616.84">
  <g id="Glyphs">
    <path d="M4.27,606.78c28.2-3.42,64.95-13.67,91.44-38.46,25.64-23.93,49.57-71.79,79.48-135.88,22.22-48.71,52.99-118.79,86.32-194.85,31.62-74.35,77.77-166.65,77.77-194.85s-39.31-31.62-70.08-34.18l4.27-8.55h163.23l-4.27,493.97L775.99,0h152.12l-3.42,8.55c-23.93,4.27-45.29,2.56-70.93,36.75-16.24,22.22-28.2,60.68-39.31,94.01-15.38,46.15-29.91,95.72-46.15,145.28l-68.37,213.65c-9.4,29.91-17.09,58.11-17.09,70.93,0,24.78,38.46,34.18,67.51,37.6l-2.56,8.55h-245.27l2.56-8.55c43.58-3.42,61.53-12.82,80.33-31.62,7.69-7.69,20.51-43.59,29.91-70.93,25.64-75.21,59.82-183.74,67.51-207.67,24.78-75.21,57.26-176.05,79.48-250.4l-392.27,564.9c-5.98,8.55-17.09,6.84-17.09,0l4.27-552.94c-59.82,136.74-92.3,208.53-163.23,374.32-23.08,52.99-42.73,103.41-42.73,127.34,0,26.49,29.91,41.02,76.92,47l-4.27,8.55H0l4.27-8.55Z"/>
  </g>
</svg>