<?xml version="1.0" encoding="UTF-8"?>
<svg id="Ebene_2" data-name="Ebene 2" xmlns="http://www.w3.org/2000/svg" viewBox="0 0 386.29 415.34">
  <g id="Glyphs">
    <path d="M207.67,388.85c0-24.78,6.84-44.44,12.82-61.53,14.53-39.31,64.1-161.52,74.35-192.29,10.26-31.62,18.8-53.84,18.8-66.66,0-10.26-.85-18.8-11.11-18.8-14.53,0-38.46,14.53-54.7,29.91-41.02,39.31-68.37,75.21-96.57,133.32-16.24,33.33-54.7,128.19-82.9,198.27H0c40.17-93.15,78.62-180.32,99.14-234.16,23.93-62.39,36.75-99.99,36.75-106.83,0-8.55-.85-12.82-6.84-12.82-13.67,0-47,38.46-89.73,87.17l-6.84-5.98C84.61,61.53,152.98,0,188.02,0c11.11,0,19.66,9.4,19.66,25.64,0,17.95-17.09,76.06-35.04,121.36l2.56.85C235.87,55.55,315.35.85,358.94.85c18.8,0,27.35,22.22,27.35,40.17s-6.84,44.44-17.09,70.93l-94.86,252.97h2.56c27.35-16.24,71.79-58.11,101.7-89.73l5.98,5.98c-17.95,26.49-110.25,134.17-146.99,134.17-17.95,0-29.91-13.67-29.91-26.49Z"/>
  </g>
</svg>