<?xml version="1.0" encoding="UTF-8"?>
<svg id="Ebene_2" data-name="Ebene 2" xmlns="http://www.w3.org/2000/svg" viewBox="0 0 793.08 619.6">
  <g id="Glyphs">
    <path d="M478.58,609.34L297.41,61.53c-45.29,136.74-67.51,205.11-121.36,370.9-17.09,52.99-29.91,97.43-29.91,122.21,0,30.77,37.6,46.15,84.61,52.13l-2.56,8.55H0l2.56-8.55c28.2-3.42,64.1-13.67,88.03-38.46,23.07-23.93,42.73-71.79,65.81-135.88,17.09-48.71,41.88-117.94,66.66-194,23.93-74.35,53.84-158.96,53.84-182.89,0-33.33-48.71-42.73-77.77-47l3.42-8.55h157.25l166.65,493.11c32.48-99.13,64.95-205.11,99.14-310.22,14.53-44.44,26.49-88.03,26.49-111.95,0-31.62-29.91-54.7-82.04-62.39l3.42-8.55h219.64l-3.42,8.55c-43.59,5.98-71.79,23.07-95.72,55.55-13.67,17.95-29.91,66.66-48.71,118.79-17.95,50.42-41.88,117.94-65.81,194-22.22,64.95-52.99,166.65-75.21,233.31-1.71,4.27-7.69,9.4-13.67,9.4-4.27,0-8.55-4.27-11.96-10.26Z"/>
  </g>
</svg>