<?xml version="1.0" encoding="UTF-8"?>
<svg id="Ebene_2" data-name="Ebene 2" xmlns="http://www.w3.org/2000/svg" viewBox="0 0 477.73 690.53">
  <g id="Glyphs">
    <path d="M0,681.13l36.75-3.42c14.53-1.71,20.51-10.26,28.2-30.77L249.55,134.17c-35.04,23.07-72.64,56.4-108.54,97.43l-6.84-5.98c44.44-57.26,84.61-94.01,124.77-116.23l40.17-96.57L368.34,0l-34.18,88.03c13.67-2.56,28.2-5.98,41.88-5.98,66.66,0,101.7,39.31,101.7,113.66,0,118.79-112.81,297.41-229.89,297.41-28.2,0-43.59-7.69-55.55-17.95-17.09,48.71-34.18,99.99-50.42,147.85-2.56,6.84-9.4,34.18-9.4,41.02,0,13.67,29.06,14.53,50.42,17.09v9.4H0v-9.4ZM408.51,205.11c0-58.97-25.64-105.12-58.11-105.12-6.84,0-14.53.85-23.07,4.27-38.46,98.28-81.19,217.93-123.92,340.99,9.4,17.95,21.37,35.89,44.44,35.89,85.46,0,160.67-187.16,160.67-276.04Z"/>
  </g>
</svg>