<?xml version="1.0" encoding="UTF-8"?>
<svg id="Ebene_2" data-name="Ebene 2" xmlns="http://www.w3.org/2000/svg" viewBox="0 0 605.92 617.03">
  <g id="Glyphs">
    <path d="M2.56,608.48c43.59-3.42,65.81-12.82,84.61-31.62,7.69-7.69,21.37-43.59,31.62-70.93,27.35-74.35,58.97-170.07,66.66-193.14,25.64-74.35,44.44-129.9,68.37-204.25,5.13-16.24,11.96-38.46,11.96-53.84,0-37.6-41.88-43.59-70.08-44.44l3.42-8.55c58.11,0,143.58-1.71,231.6-1.71,94.86,0,175.2,42.73,175.2,145.28s-91.44,184.6-249.55,184.6c-17.95,0-58.97-1.71-92.3-6.84-21.37,63.24-33.33,99.99-58.11,176.91-8.55,26.49-18.8,57.26-18.8,70.08,0,23.93,38.46,35.04,69.22,38.46l-2.56,8.55H0l2.56-8.55ZM523.02,125.63c0-92.3-59.82-113.66-120.5-113.66-10.26,0-23.93.85-34.18,1.71l-100.84,298.26c11.11,1.71,21.37,1.71,30.77,1.71,158.1,0,224.76-82.9,224.76-188.01Z"/>
  </g>
</svg>