<?xml version="1.0" encoding="UTF-8"?>
<svg id="Ebene_2" data-name="Ebene 2" xmlns="http://www.w3.org/2000/svg" viewBox="0 0 358.08 608.49">
  <g id="Glyphs">
    <path d="M42.73,599.08l36.75-3.42c14.53-1.71,19.66-6.84,28.2-30.77l71.79-202.54c-29.06,27.35-75.21,50.42-98.28,50.42-41.88,0-81.19-26.49-81.19-100.84C0,159.81,129.05,0,230.75,0c34.18,0,51.28,11.96,56.4,30.77l5.98-14.53L352.96,0h5.13l-174.34,540.97c-2.56,7.69-10.26,32.48-10.26,41.02,0,12.82,29.06,14.53,50.42,17.09v9.4H42.73v-9.4ZM271.77,55.55c0-23.93-16.24-42.73-30.77-42.73-61.53,0-188.87,220.49-188.87,339.28,0,35.89,7.69,50.42,29.91,50.42,76.92,0,189.72-260.66,189.72-346.97Z"/>
  </g>
</svg>