<?xml version="1.0" encoding="UTF-8"?>
<svg id="Ebene_2" data-name="Ebene 2" xmlns="http://www.w3.org/2000/svg" viewBox="0 0 589.68 810.17">
  <g id="Glyphs">
    <path d="M85.46,695.66c-16.24,0-26.49,11.11-31.62,15.38,11.11,7.69,23.93,15.38,23.93,39.31s-23.07,35.04-41.88,35.04S0,770.86,0,747.79c0-33.33,35.04-47.86,82.9-64.95,38.46-13.67,94.01-30.77,149.56-51.28-120.5-.85-204.25-103.41-204.25-243.56C28.2,240.15,165.8,0,386.29,0c108.54,0,203.4,88.88,203.4,249.55,0,150.41-128.19,350.39-323.9,380.3l-146.14,49.57c98.28,11.11,147.85,55.55,243.57,55.55,71.79,0,111.1-31.62,133.32-71.79l7.69,3.42c-14.53,46.15-64.1,143.58-173.49,143.58-116.23,0-168.36-114.52-245.27-114.52ZM511.91,187.16c0-100.84-41.02-169.21-113.66-169.21-140.16,0-293.13,220.49-293.13,426.45,0,113.66,47,169.21,114.52,169.21,114.52,0,292.28-190.58,292.28-426.45Z"/>
  </g>
</svg>