<?xml version="1.0" encoding="UTF-8"?>
<svg id="Ebene_2" data-name="Ebene 2" xmlns="http://www.w3.org/2000/svg" viewBox="0 0 348.68 411.92">
  <g id="Glyphs">
    <path d="M93.15,169.21c22.22-60.68,32.48-104.26,32.48-110.25s0-8.55-4.27-8.55c-9.4,0-45.29,30.77-87.17,87.17l-7.69-5.13C80.33,44.44,137.59,0,168.36,0c12.82,0,22.22,6.84,22.22,27.35,0,17.95-11.96,67.51-23.07,98.28l2.56.85C229.04,30.77,282.02,2.56,305.1,2.56s43.59,17.95,43.59,41.02c0,21.37-16.24,42.73-41.88,42.73-30.77,0-36.75-23.07-44.44-41.88-30.77,6.84-91.44,88.88-111.95,145.28-32.48,88.88-54.7,152.12-82.04,222.2H0c37.6-93.15,74.35-190.58,93.15-242.71Z"/>
  </g>
</svg>