<?xml version="1.0" encoding="UTF-8"?>
<svg id="Ebene_2" data-name="Ebene 2" xmlns="http://www.w3.org/2000/svg" viewBox="0 0 597.38 617.03">
  <g id="Glyphs">
    <path d="M2.56,608.48c43.59-3.42,62.39-12.82,81.19-31.62,7.69-7.69,21.37-43.59,31.62-70.93,27.35-74.35,58.97-170.07,66.66-193.14,25.64-74.35,44.44-129.9,68.37-204.25,5.13-16.24,11.96-38.46,11.96-53.84,0-37.6-41.88-43.59-70.08-44.44l3.42-8.55c71.79,0,122.21-1.71,212.8-1.71,105.97,0,188.02,39.31,188.02,135.88,0,79.48-73.5,160.67-212.8,179.47,33.33,67.51,76.06,153.83,99.99,198.27,39.31,73.5,59.82,89.73,113.66,94.86l-2.56,8.55h-146.99c-42.73-82.9-91.44-172.63-145.28-293.13l-41.02-5.13c-21.37,61.53-34.18,105.12-58.97,181.18-8.55,26.49-18.8,57.26-18.8,70.08,0,23.93,36.75,35.04,67.51,38.46l-2.56,8.55H0l2.56-8.55ZM508.5,138.45c0-72.64-51.28-125.63-113.66-125.63h-25.64c-17.95,27.35-89.73,252.11-103.41,293.13,10.26.85,26.49.85,35.89.85,160.67,0,206.82-96.57,206.82-168.36Z"/>
  </g>
</svg>