<?xml version="1.0" encoding="UTF-8"?>
<svg id="Ebene_2" data-name="Ebene 2" xmlns="http://www.w3.org/2000/svg" viewBox="0 0 288 415.34">
  <g id="Glyphs">
    <path d="M0,346.97c0-20.51,14.53-35.89,36.75-35.89s30.77,17.95,34.18,39.31c3.42,18.8,8.55,47,45.29,47,32.48,0,51.28-35.89,51.28-67.51s-11.11-57.26-19.66-77.77c-5.98-14.53-21.37-43.59-32.48-66.66-10.26-21.37-19.66-36.75-19.66-68.37C95.72,42.73,153.83,0,217.93,0c41.02,0,70.08,23.93,70.08,48.71,0,20.51-9.4,35.04-30.77,35.04-15.38,0-26.49-15.38-31.62-31.62-5.98-17.95-16.24-34.18-39.31-34.18-17.09,0-40.17,17.95-40.17,46.15,0,24.78,11.96,49.57,25.64,79.48,5.98,12.82,21.37,39.31,29.06,55.55,12.82,27.35,23.07,43.59,23.07,79.48,0,45.29-44.44,136.74-139.3,136.74-45.29,0-84.61-26.49-84.61-68.37Z"/>
  </g>
</svg>