<?xml version="1.0" encoding="UTF-8"?>
<svg id="Ebene_2" data-name="Ebene 2" xmlns="http://www.w3.org/2000/svg" viewBox="0 0 505.08 632.41">
  <g id="Glyphs">
    <path d="M43.59,556.35l-36.75,42.73-6.84-3.42,62.39-199.98,11.11,1.71c-1.71,9.4-3.42,23.93-3.42,38.46,0,94.01,52.13,183.74,143.58,183.74,70.93,0,128.19-48.71,128.19-123.06,0-36.75-12.82-68.37-47-107.68-31.62-36.75-77.77-77.77-106.83-119.65-19.66-29.06-38.46-54.7-38.46-105.12C149.56,88.88,215.36,0,339.28,0c60.68,0,108.54,29.91,129.9,45.29l27.35-26.49,8.55,2.56-45.29,195.71-11.11-1.71c.85-8.55,1.71-16.24,1.71-23.93,0-47-13.67-176.91-115.37-176.91-68.37,0-110.25,55.55-110.25,111.95,0,46.15,16.24,73.5,48.71,115.37,25.64,33.33,61.53,63.24,88.03,94.01,38.46,46.15,57.26,82.9,57.26,124.77,0,111.1-100.84,171.78-205.11,171.78-97.43,0-152.12-58.97-170.07-76.06Z"/>
  </g>
</svg>