<?xml version="1.0" encoding="UTF-8"?>
<svg id="Ebene_2" data-name="Ebene 2" xmlns="http://www.w3.org/2000/svg" viewBox="0 0 290.57 523.88">
  <g id="Glyphs">
    <path d="M0,495.68c0-18.8,11.11-49.57,13.67-56.4L119.65,148.7H54.7l18.8-33.33h58.11l32.48-90.59L239.29,0l-43.59,115.37h94.86l-20.51,33.33h-84.61c-32.48,87.17-66.66,179.47-76.92,208.53-15.38,42.73-31.62,88.88-31.62,101.7,0,7.69,2.56,9.4,6.84,9.4,19.66,0,88.88-76.06,109.39-105.12l7.69,5.13c-19.66,35.04-117.08,155.54-171.78,155.54-19.66,0-29.06-15.38-29.06-28.2Z"/>
  </g>
</svg>