<?xml version="1.0" encoding="UTF-8"?>
<svg id="Ebene_2" data-name="Ebene 2" xmlns="http://www.w3.org/2000/svg" viewBox="0 0 590.54 615.32">
  <g id="Glyphs">
    <path d="M2.56,606.78c43.59-3.42,68.37-12.82,87.17-31.62,7.69-7.69,21.37-43.59,31.62-70.93,27.35-74.35,58.97-170.07,66.66-193.14,22.22-64.95,72.64-219.64,97.43-297.41l-94.01-.85c-50.42-.85-140.16,100.84-164.94,129.9l-7.69-4.27L66.66,0h523.88l-48.71,141.87h-8.55c-2.56-42.73-19.66-127.34-40.17-127.34l-123.92-.85c-25.64,76.92-83.75,253.82-99.14,297.41-15.38,45.29-39.31,121.36-61.53,187.16-8.55,24.78-18.8,58.11-18.8,70.93,0,23.93,42.73,34.18,71.79,37.6l-2.56,8.55H0l2.56-8.55Z"/>
  </g>
</svg>