<?xml version="1.0" encoding="UTF-8"?>
<svg id="Ebene_2" data-name="Ebene 2" xmlns="http://www.w3.org/2000/svg" viewBox="0 0 380.3 414.49">
  <g id="Glyphs">
    <path d="M0,374.32c0-17.95,6.84-43.58,17.09-70.93L111.1,56.4c0-4.27-1.71-5.98-4.27-5.98-17.95,0-58.97,48.71-99.99,94.01l-6.84-5.98C17.95,105.97,105.12,0,154.69,0c16.24,0,24.78,13.67,24.78,26.49,0,24.78-7.69,44.44-13.67,61.53-14.53,39.31-64.1,161.52-74.35,192.29-10.25,31.62-18.8,56.4-18.8,66.66s.85,18.8,11.11,18.8c11.11,0,35.89-11.96,56.4-32.48,34.18-34.18,70.08-77.77,95.72-130.76,9.4-19.66,50.42-127.34,79.48-198.27h64.95l-96.57,246.98c-13.67,36.75-35.89,97.43-32.48,108.54,29.06-11.96,73.5-61.53,96.57-86.32l5.98,5.98c-23.07,36.75-111.1,135.03-153.83,135.03-16.24,0-22.22-8.55-22.22-23.93,0-19.66,16.24-68.37,32.48-117.08l-1.71-3.42c-64.1,93.15-143.58,144.43-176.05,144.43-25.64,0-32.48-22.22-32.48-40.17Z"/>
  </g>
</svg>