<?xml version="1.0" encoding="UTF-8"?>
<svg id="Ebene_2" data-name="Ebene 2" xmlns="http://www.w3.org/2000/svg" viewBox="0 0 644.38 623.01">
  <g id="Glyphs">
    <path d="M0,477.73c0-72.64,28.2-141.87,37.6-170.92,24.78-76.92,41.88-124.77,66.66-199.98,5.13-14.53,11.96-38.46,11.96-53.84,0-37.6-41.88-43.58-70.08-44.44l3.42-8.55h247.84l-3.42,8.55c-28.2,3.42-49.57,5.98-75.21,35.89-13.67,16.24-28.2,56.4-41.02,92.3-19.66,54.7-30.77,88.88-51.28,149.56-24.78,73.5-41.88,131.61-41.88,194,0,67.51,40.17,118.79,117.08,118.79,93.15,0,156.39-54.7,213.65-219.64,15.38-44.44,30.77-99.99,61.53-196.56,14.53-45.29,26.49-88.02,26.49-111.95,0-31.62-29.91-54.7-82.04-62.39l3.42-8.55h219.64l-3.42,8.55c-43.58,5.98-71.79,23.07-95.72,55.55-13.67,17.95-29.91,66.66-48.71,118.79-17.95,50.42-42.73,131.61-67.51,206.82-23.93,71.79-78.62,233.31-241.86,233.31C40.17,623.01,0,544.39,0,477.73Z"/>
  </g>
</svg>