<?xml version="1.0" encoding="UTF-8"?>
<svg id="Ebene_2" data-name="Ebene 2" xmlns="http://www.w3.org/2000/svg" viewBox="0 0 355.52 415.34">
  <g id="Glyphs">
    <path d="M27.35,312.79c0-69.22,91.44-168.36,163.23-252.97h-99.99c-43.58,0-79.48,23.07-79.48,51.28,0,14.53,3.42,24.78,12.82,24.78,11.96,0,15.38-13.67,30.77-13.67,14.53,0,18.8,11.96,18.8,23.07,0,11.96-13.67,26.49-30.77,26.49C14.53,171.78,0,146.99,0,101.7S50.42,4.27,110.24,4.27h69.22c19.66,0,46.15,0,55.55-4.27l5.13,6.84c-13.67,25.64-31.62,52.13-51.28,76.06-65.8,78.62-98.28,159.81-98.28,206.82s24.78,68.37,64.1,68.37c94.01,0,181.18-145.28,181.18-229.89,0-18.8-4.27-41.88-10.26-45.29-24.78-13.67-39.31-24.78-39.31-52.13,0-23.07,17.09-29.91,30.77-29.91,22.22,0,38.46,22.22,38.46,94.01,0,182.89-145.29,320.48-230.75,320.48-62.39,0-97.43-37.6-97.43-102.55Z"/>
  </g>
</svg>