<?xml version="1.0" encoding="UTF-8"?>
<svg id="Ebene_2" data-name="Ebene 2" xmlns="http://www.w3.org/2000/svg" viewBox="0 0 725.57 625.58">
  <g id="Glyphs">
    <path d="M0,620.45c23.07-67.51,93.15-266.64,110.24-316.21,15.38-45.29,41.02-120.5,62.39-187.16,8.55-25.64,16.24-52.99,16.24-66.66,0-28.2-41.02-41.88-70.93-41.88l3.42-8.55h249.55l-3.42,8.55c-33.33,2.56-56.4,11.96-74.35,30.77-8.55,7.69-23.93,42.73-34.18,70.93-36.75,104.26-98.28,286.3-134.17,391.41,155.54-152.98,305.95-300.82,360.65-358.08,51.28-53.84,71.79-88.03,71.79-100.84,0-23.07-31.62-30.77-58.97-34.18l2.56-8.55h224.76l-2.56,8.55c-29.06,2.56-89.73,15.38-170.07,95.72-159.81,159.81-277.75,273.48-483.71,473.46l-60.68,47.86-8.54-5.13Z"/>
  </g>
</svg>