<?xml version="1.0" encoding="UTF-8"?>
<svg id="Ebene_2" data-name="Ebene 2" xmlns="http://www.w3.org/2000/svg" viewBox="0 0 528.15 414.49">
  <g id="Glyphs">
    <path d="M17.95,317.06c0-78.62,99.99-165.8,182.03-257.24h-113.66c-48.71,0-74.35,24.78-74.35,47,0,14.53,10.25,12.82,12.82,12.82,6.84,0,13.67-1.71,20.51-1.71,14.53,0,19.66,12.82,19.66,23.93,0,12.82-12.82,26.49-29.91,26.49C9.4,168.36,0,139.3,0,107.68,0,70.93,42.73,4.27,109.39,4.27h75.21c19.66,0,55.55,0,64.95-4.27l4.27,5.98c-19.66,26.49-38.46,52.13-58.11,76.92-47.86,59.82-113.66,145.28-113.66,209.38,0,52.13,29.91,75.21,76.92,75.21,18.8,0,32.48-7.69,54.7-24.78-5.98-17.95-6.84-37.6-6.84-61.53C206.82,152.98,302.53,7.69,364.92,7.69c29.06,0,39.31,28.2,39.31,62.39,0,76.06-70.93,179.47-141.01,243.56,14.53,27.35,26.49,43.59,68.37,43.59,90.59,0,178.61-160.67,178.61-241,0-20.51-2.56-39.31-8.54-41.02-23.93-5.13-44.44-6.84-44.44-40.17,0-27.35,19.66-35.04,33.33-35.04,23.07,0,37.6,29.91,37.6,94.86,0,127.34-110.25,319.63-223.05,319.63-35.89,0-70.08-22.22-88.02-62.39-39.31,39.31-64.95,62.39-97.43,62.39-58.11,0-101.7-29.91-101.7-97.43ZM352.96,115.37c0-25.64-3.42-53.84-28.2-53.84-47.86,0-80.33,87.17-80.33,159.81,0,29.91,2.56,58.97,13.67,83.75,53.84-53.84,94.86-131.61,94.86-189.72Z"/>
  </g>
</svg>