<?xml version="1.0" encoding="UTF-8"?>
<svg id="Ebene_2" data-name="Ebene 2" xmlns="http://www.w3.org/2000/svg" viewBox="0 0 999.9 625.58">
  <g id="Glyphs">
    <path d="M0,620.45c18.8-67.51,75.21-266.64,89.73-316.21,12.82-45.29,35.04-120.5,52.99-187.16,6.84-25.64,11.96-52.13,11.96-65.81,0-28.2-42.73-42.73-72.64-42.73l2.56-8.55h244.42l-2.56,8.55c-33.33,2.56-52.13,11.96-69.22,30.77-8.55,7.69-22.22,43.59-30.77,70.93-30.77,105.12-84.61,288.01-115.37,395.69C228.18,374.32,390.56,193.14,456.36,114.52c6.84-25.64,11.96-50.42,11.96-63.24,0-28.2-41.02-42.73-70.93-42.73l2.56-8.55h242.71l-2.56,8.55c-33.33,2.56-57.26,10.25-74.35,29.06-8.55,7.69-20.51,44.44-29.06,72.64-29.91,104.26-82.9,294.84-112.81,403.38,144.43-149.56,293.99-312.79,345.26-370.9,48.71-54.7,64.95-86.32,64.95-99.14,0-23.93-33.33-31.62-60.68-35.04l2.56-8.55h223.91l-2.56,8.55c-29.06,2.56-87.17,15.38-162.38,94.86-150.41,158.96-260.66,278.6-453.8,476.88l-56.4,45.29-8.55-5.13c29.91-104.26,94.01-339.28,129.9-470.89-104.26,122.21-239.29,274.33-380.3,430.73l-57.26,45.29-8.55-5.13Z"/>
  </g>
</svg>