<?xml version="1.0" encoding="UTF-8"?>
<svg id="Ebene_2" data-name="Ebene 2" xmlns="http://www.w3.org/2000/svg" viewBox="0 0 400.81 414.49">
  <g id="Glyphs">
    <path d="M0,364.92c0-33.33,12.82-64.1,32.47-94.86l8.55,3.42c-9.4,21.37-13.67,38.46-13.67,56.4,0,24.78,11.11,35.04,31.62,35.04,30.77,0,70.93-55.55,118.79-133.32-6.84-47-17.95-120.5-23.07-147.85-4.27-19.66-11.11-33.33-19.66-33.33-14.53,0-47.86,47-76.06,89.73l-6.84-5.13C92.3,61.53,131.61,0,173.49,0c20.51,0,29.91,17.09,35.04,41.02,10.26,39.31,16.24,75.21,20.51,117.08C257.24,108.54,316.21,0,364.07,0c25.64,0,36.75,23.93,36.75,50.42,0,31.62-16.24,64.95-31.62,91.44l-8.55-3.42c11.11-21.37,15.38-39.31,15.38-55.55,0-22.22-9.4-33.33-29.06-33.33-29.91,0-54.7,33.33-114.52,125.63,7.69,52.13,18.8,122.21,27.35,155.54,4.27,18.8,8.55,35.04,20.51,35.04,15.38,0,50.42-35.89,73.5-69.22l6.84,6.84c-29.06,44.44-77.77,111.1-125.63,111.1-20.51,0-27.35-18.8-32.48-39.31-9.4-35.04-17.09-82.9-23.07-126.48-53.84,94.01-94.01,165.79-143.58,165.79-24.78,0-35.89-20.51-35.89-49.57Z"/>
  </g>
</svg>