<?xml version="1.0" encoding="UTF-8"?>
<svg id="Ebene_2" data-name="Ebene 2" xmlns="http://www.w3.org/2000/svg" viewBox="0 0 750.35 615.32">
  <g id="Glyphs">
    <path d="M.85,606.78c50.42-1.71,96.57-28.2,170.92-102.55,30.77-30.77,103.41-111.95,170.92-180.32l-77.77-197.42c-11.96-29.06-30.77-74.35-40.17-87.17-20.51-29.06-43.59-28.2-72.64-30.77l3.42-8.55h251.26l-3.42,8.55c-42.73,3.42-79.48,10.26-79.48,33.33,0,8.55,10.26,41.02,16.24,56.4l67.51,173.49,129.9-141.87c17.95-19.66,52.13-58.11,52.13-87.17s-32.47-32.48-66.66-34.18l.86-8.55h226.47l-.86,8.55c-50.42,1.71-96.57,28.2-170.92,102.55-29.91,29.91-99.14,107.68-165.8,174.34l81.19,203.4c11.11,29.06,30.77,74.35,40.17,87.17,20.51,28.2,43.58,28.2,72.64,30.77l-3.42,8.55h-251.26l3.42-8.55c42.73-3.42,79.48-8.55,79.48-33.33,0-9.4-9.4-39.31-16.24-56.4l-70.08-179.47-135.88,147.85c-17.95,19.66-52.13,58.11-52.13,86.32,0,30.77,32.47,33.33,66.66,35.04l-.85,8.55H0l.85-8.55Z"/>
  </g>
</svg>