<?xml version="1.0" encoding="UTF-8"?>
<svg id="Ebene_2" data-name="Ebene 2" xmlns="http://www.w3.org/2000/svg" viewBox="0 0 491.4 609.34">
  <g id="Glyphs">
    <path d="M0,565.75c0-15.38,11.11-35.89,33.33-35.89,33.33,0,38.46,46.15,61.53,46.15,66.66,0,143.58-86.32,161.52-131.61,7.69-83.75,11.96-153.83,11.96-214.51s0-96.57-5.98-160.67c-.85-5.98-3.42-9.4-7.69-9.4-10.26,0-40.17,40.17-77.77,88.88l-6.84-5.98C219.63,58.11,273.48,0,303.39,0c11.11,0,15.38,9.4,18.8,25.64,3.42,17.95,10.25,88.88,10.25,146.99s0,120.5-11.11,205.96c64.1-88.03,120.5-205.96,120.5-271.77,0-41.02-20.51-46.15-20.51-76.06,0-18.8,16.24-30.77,31.62-30.77,24.78,0,38.46,17.09,38.46,41.02,0,19.66-4.27,43.59-19.66,85.46-33.33,92.3-78.62,177.76-162.38,292.28-96.57,132.46-192.29,190.58-251.26,190.58-35.04,0-58.11-19.66-58.11-43.59Z"/>
  </g>
</svg>