<?xml version="1.0" encoding="UTF-8"?>
<svg id="Ebene_2" data-name="Ebene 2" xmlns="http://www.w3.org/2000/svg" viewBox="0 0 622.16 615.32">
  <g id="Glyphs">
    <path d="M2.56,606.78c43.58-3.42,64.95-12.82,83.75-31.62,7.69-7.69,21.37-43.59,31.62-70.93,29.06-78.62,51.28-142.72,65.81-187.16L114.52,126.48c-10.26-29.06-27.35-74.35-36.75-87.17C58.97,10.26,35.89,11.11,6.84,8.55L10.25,0h239.29l-3.42,8.55c-35.89,2.56-72.64,11.11-72.64,34.18,0,8.55,9.4,39.31,15.38,56.4l72.64,200.83,152.12-170.07c16.24-18.8,48.71-57.26,48.71-87.17,0-24.78-35.89-32.48-70.08-34.18l3.42-8.55h226.47l-3.42,8.55c-47.86,1.71-93.15,27.35-164.94,102.55-26.49,27.35-124.77,135.88-189.72,206.82l-58.97,180.32c-9.4,29.91-18.8,58.11-18.8,70.93,0,23.93,46.15,34.18,75.21,37.6l-2.56,8.55H0l2.56-8.55Z"/>
  </g>
</svg>