<?xml version="1.0" encoding="UTF-8"?>
<svg id="Ebene_2" data-name="Ebene 2" xmlns="http://www.w3.org/2000/svg" viewBox="0 0 417.91 421.32">
  <g id="Glyphs">
    <path d="M0,402.52c0-33.33,41.88-50.42,68.37-70.93,37.6-29.06,103.41-95.72,140.16-131.61,37.6-36.75,69.22-61.53,104.26-97.43l-28.2-1.71c-48.71-17.09-78.62-56.4-119.65-56.4-33.33,0-55.55,31.62-55.55,48.71,0,26.49,20.51,23.93,30.77,23.93,14.53,0,33.33,11.96,33.33,30.77s-13.67,33.33-35.89,33.33c-25.64,0-48.71-21.37-48.71-60.68,0-43.58,40.17-111.95,121.35-111.95,62.39,0,109.39,48.71,137.59,48.71,25.64,0,25.64-29.06,31.62-42.73,4.27-10.26,14.53-14.53,22.22-14.53,12.82,0,16.24,11.11,16.24,18.8,0,20.51-34.18,26.49-71.79,66.66-25.64,27.35-77.77,77.77-108.54,107.68-31.62,30.77-83.75,76.06-117.94,110.25l42.73-2.56c50.42,11.96,68.37,77.77,122.21,77.77s59.82-52.99,59.82-67.51-7.69-23.07-15.38-23.07c-13.67,0-23.93,10.26-41.88,10.26-12.82,0-29.91-6.84-29.91-27.35,0-24.78,18.8-41.02,41.02-41.02,35.04,0,59.82,31.62,59.82,72.64,0,57.26-52.13,118.79-111.1,118.79-76.06,0-102.55-84.61-154.68-84.61-29.06,0-36.75,41.88-41.88,58.11-4.27,15.38-15.38,26.49-33.33,26.49-7.69,0-17.09-5.13-17.09-18.8Z"/>
  </g>
</svg>