<?xml version="1.0" encoding="UTF-8"?>
<svg id="Ebene_2" data-name="Ebene 2" xmlns="http://www.w3.org/2000/svg" viewBox="0 0 433.29 622.16">
  <g id="Glyphs">
    <path d="M215.36,622.16c-67.81,0-120.65-24.92-158.53-74.78C18.94,497.53,0,419.05,0,311.93c0-53.55,5.13-99.99,15.38-139.3,10.26-39.31,24.92-71.79,44.01-97.43,19.08-25.64,42.01-44.57,68.8-56.83C154.97,6.13,185.16,0,218.78,0s63.67,6.13,90.16,18.37c26.49,12.26,48.99,31.19,67.51,56.83,18.51,25.64,32.61,58.11,42.3,97.43,9.68,39.31,14.53,85.75,14.53,139.3s-4.85,99.86-14.53,138.87c-9.69,39.03-23.93,71.23-42.73,96.57-18.8,25.36-41.74,44.16-68.8,56.4-27.07,12.25-57.69,18.37-91.87,18.37ZM217.07,555.5c25.64,0,47.14-5.55,64.52-16.66,17.37-11.11,31.33-27.05,41.88-47.86,10.54-20.79,18.23-46.28,23.07-76.49,4.83-30.19,7.26-64.38,7.26-102.55s-2.43-72.35-7.26-102.55c-4.85-30.19-12.54-55.83-23.07-76.92-10.55-21.07-24.5-37.18-41.88-48.29-17.39-11.11-38.88-16.66-64.52-16.66s-47.3,5.55-64.95,16.66c-17.67,11.11-31.77,27.21-42.3,48.29-10.55,21.08-18.24,46.72-23.07,76.92-4.85,30.21-7.26,64.39-7.26,102.55s2.42,72.36,7.26,102.55c4.83,30.21,12.53,55.7,23.07,76.49,10.54,20.8,24.64,36.75,42.3,47.86,17.65,11.11,39.31,16.66,64.95,16.66Z"/>
  </g>
</svg>