<?xml version="1.0" encoding="UTF-8"?>
<svg id="Ebene_2" data-name="Ebene 2" xmlns="http://www.w3.org/2000/svg" viewBox="0 0 399.96 606.77">
  <g id="Glyphs">
    <path d="M5.13,545.24c21.65-19.36,45-39.87,70.08-61.53,25.06-21.65,50.42-43.87,76.06-66.66,27.35-23.93,51.28-45.72,71.79-65.38,20.51-19.66,37.6-38.59,51.28-56.83,13.67-18.23,23.93-36.75,30.77-55.55,6.84-18.8,10.26-39.02,10.26-60.68,0-35.89-9.69-63.37-29.06-82.47-19.38-19.08-46.44-28.63-81.19-28.63-21.08,0-39.03,2.28-53.84,6.84-14.82,4.57-27.35,11.26-37.6,20.08-10.26,8.84-18.67,19.8-25.21,32.9-6.56,13.11-12.39,28.5-17.52,46.15L0,162.38c5.13-20.51,12.24-40.45,21.37-59.82,9.11-19.36,21.65-36.6,37.6-51.7,15.94-15.09,35.89-27.35,59.82-36.75C142.72,4.7,172.06,0,206.82,0c30.19,0,56.97,4.27,80.33,12.82,23.35,8.55,42.86,20.38,58.54,35.47,15.66,15.1,27.63,33.2,35.89,54.27,8.25,21.08,12.39,44.44,12.39,70.08s-3.56,49.57-10.68,71.79c-7.13,22.22-18.09,44.16-32.9,65.81-14.82,21.66-33.62,43.88-56.4,66.66-22.79,22.79-49.86,47.58-81.19,74.35-16.53,14.25-33.48,28.63-50.85,43.16-17.39,14.53-34.33,29.2-50.85,44.01h288.86l-11.11,68.37H5.13v-61.53Z"/>
  </g>
</svg>