<?xml version="1.0" encoding="UTF-8"?>
<svg id="Ebene_2" data-name="Ebene 2" xmlns="http://www.w3.org/2000/svg" viewBox="0 0 408.5 622.16">
  <g id="Glyphs">
    <path d="M74.35,443.54c4.55,38.18,16.52,66.53,35.89,85.03,19.36,18.52,51.84,27.77,97.43,27.77,40.45,0,71.21-9.83,92.3-29.48,21.07-19.66,31.62-48.29,31.62-85.89s-10.68-66.37-32.05-82.9c-21.37-16.52-50.57-24.78-87.6-24.78h-67.51v-67.51h70.08c32.48,0,57.97-8.83,76.49-26.49,18.51-17.65,27.77-43.58,27.77-77.77,0-30.77-9.55-54.27-28.63-70.51-19.1-16.24-47.43-24.36-85.03-24.36s-67.66,7.99-86.74,23.93c-19.09,15.96-33.48,41.02-43.16,75.21l-70.08-11.11c3.98-19.94,10.54-39.17,19.66-57.69,9.11-18.51,21.5-35.04,37.18-49.57,15.66-14.53,35.47-26.07,59.4-34.61C145.28,4.27,174.05,0,207.67,0s59.53,3.99,82.9,11.96c23.36,7.99,42.73,18.95,58.11,32.9,15.38,13.97,26.92,30.21,34.61,48.71,7.69,18.52,11.54,38.32,11.54,59.4,0,33.62-6.84,61.53-20.51,83.75-13.67,22.22-35.04,40.74-64.1,55.55,34.18,13.67,59.1,32.77,74.78,57.26,15.66,24.5,23.5,53.84,23.5,88.02,0,26.79-3.99,51.42-11.96,73.92-7.99,22.51-20.23,42.02-36.75,58.54-16.53,16.53-37.32,29.35-62.39,38.46-25.08,9.11-54.41,13.67-88.02,13.67-40.46,0-73.92-5.55-100.42-16.66-26.49-11.11-47.72-25.21-63.67-42.3-15.96-17.09-27.21-36.17-33.76-57.26-6.56-21.07-10.4-41.88-11.54-62.39h74.35Z"/>
  </g>
</svg>