<?xml version="1.0" encoding="UTF-8"?>
<svg id="Ebene_2" data-name="Ebene 2" xmlns="http://www.w3.org/2000/svg" viewBox="0 0 393.98 605.92">
  <g id="Glyphs">
    <path d="M73.5,439.27c6.26,34.76,18.51,60.25,36.75,76.49,18.23,16.24,47.56,24.36,88.03,24.36,37.6,0,67.09-11.11,88.45-33.33s32.05-57.26,32.05-105.12c0-38.74-9.27-69.93-27.77-93.58-18.52-23.64-49.14-35.47-91.87-35.47-26.79,0-49.86,4.14-69.22,12.39-19.38,8.27-37.04,20.94-52.99,38.03H11.96L38.46,0h321.33v67.51H100.84l-16.24,183.74c18.23-13.67,37.31-23.78,57.26-30.34,19.94-6.54,43.58-9.83,70.93-9.83,31.9,0,59.4,4.99,82.47,14.96,23.07,9.98,41.88,23.65,56.4,41.02,14.53,17.39,25.21,37.6,32.05,60.68s10.26,47.43,10.26,73.07c0,67.23-17.52,118.23-52.56,152.98-35.04,34.76-82.19,52.13-141.44,52.13s-109.82-13.97-143.15-41.88C23.5,536.13,4.55,494.54,0,439.27h73.5Z"/>
  </g>
</svg>