<?xml version="1.0" encoding="UTF-8"?>
<svg id="Ebene_2" data-name="Ebene 2" xmlns="http://www.w3.org/2000/svg" viewBox="0 0 408.5 622.16">
  <g id="Glyphs">
    <path d="M329.88,146.14c-4.57-13.67-9.55-25.64-14.96-35.89-5.42-10.26-12.26-18.8-20.51-25.64-8.27-6.84-18.09-11.82-29.48-14.96-11.4-3.12-25.64-4.7-42.73-4.7-21.66,0-41.17,4.14-58.54,12.39-17.39,8.27-32.48,21.79-45.29,40.59-12.82,18.8-23.07,43.45-30.77,73.92-7.69,30.49-12.39,68.24-14.1,113.24,18.23-27.35,40.17-47.14,65.81-59.4,25.64-12.25,55.55-18.37,89.73-18.37,31.9,0,59.1,4.99,81.62,14.96,22.5,9.98,41.02,23.65,55.55,41.02,14.53,17.39,25.21,37.9,32.05,61.53,6.84,23.65,10.25,49.14,10.25,76.49,0,30.21-4.7,57.55-14.1,82.04-9.4,24.5-22.94,45.59-40.59,63.24s-39.03,31.34-64.1,41.02c-25.08,9.68-52.99,14.53-83.75,14.53-41.6,0-75.63-8.12-102.13-24.36-26.49-16.24-47.43-37.31-62.81-63.24-15.38-25.92-26.07-54.97-32.05-87.17C2.99,415.21,0,382.87,0,350.39c0-68.93,6.26-125.91,18.8-170.92,12.53-45,29.06-80.76,49.57-107.25,20.51-26.49,44.15-45.15,70.93-55.98C166.08,5.42,194,0,223.05,0c54.12,0,94.57,11.54,121.35,34.61,26.77,23.07,44.72,56.27,53.84,99.56l-68.37,11.96ZM205.96,559.77c39.31,0,70.64-11.96,94.01-35.89,23.35-23.93,35.04-57.26,35.04-99.99,0-18.8-2.14-36.45-6.41-52.99-4.27-16.52-11.11-30.9-20.51-43.16-9.4-12.25-21.79-21.79-37.18-28.63-15.38-6.84-34.18-10.26-56.4-10.26-17.09,0-33.9,2.56-50.42,7.69-16.53,5.13-30.91,13.39-43.16,24.78-12.26,11.4-21.94,25.93-29.06,43.58-7.13,17.67-10.12,39.03-8.97,64.1.56,17.09,3.7,33.48,9.4,49.14,5.69,15.68,13.67,29.48,23.93,41.45s22.78,21.66,37.6,29.06c14.81,7.41,32.18,11.11,52.13,11.11Z"/>
  </g>
</svg>