<?xml version="1.0" encoding="UTF-8"?>
<svg id="Ebene_2" data-name="Ebene 2" xmlns="http://www.w3.org/2000/svg" viewBox="0 0 435 622.16">
  <g id="Glyphs">
    <path d="M108.54,305.1c-25.08-9.68-46.44-26.07-64.1-49.14-17.67-23.07-26.49-53.41-26.49-91.02,0-23.35,3.98-45,11.96-64.95,7.97-19.94,20.22-37.31,36.75-52.13,16.52-14.81,37.31-26.49,62.39-35.04C154.11,4.27,183.74,0,217.93,0s64.66,4.14,89.73,12.39c25.06,8.27,45.72,19.8,61.96,34.61,16.24,14.82,28.2,32.34,35.89,52.56,7.69,20.23,11.54,42.02,11.54,65.38,0,37.6-8.69,67.66-26.07,90.16-17.39,22.51-38.6,38.32-63.67,47.43,11.96,3.99,24.21,9.83,36.75,17.52,12.53,7.69,24.06,17.39,34.61,29.06,10.54,11.68,19.23,25.64,26.07,41.88,6.84,16.24,10.26,34.9,10.26,55.98,0,26.21-4.42,50.14-13.25,71.79-8.84,21.66-22.37,40.17-40.59,55.55-18.24,15.38-40.89,27.21-67.94,35.47-27.07,8.25-58.83,12.39-95.29,12.39s-68.37-4.14-95.72-12.39c-27.35-8.25-50.14-20.08-68.37-35.47-18.24-15.38-31.77-33.89-40.59-55.55-8.84-21.65-13.25-45.57-13.25-71.79,0-20.51,3.7-38.74,11.11-54.7,7.4-15.94,16.37-29.76,26.92-41.45,10.54-11.67,22.07-21.22,34.61-28.63,12.53-7.4,24.49-13.1,35.89-17.09ZM76.92,447.82c0,33.62,11.24,60.82,33.76,81.62,22.5,20.8,58.54,31.19,108.11,31.19s84.61-10.39,106.83-31.19c22.22-20.79,33.33-48.29,33.33-82.47,0-15.94-2.43-30.62-7.26-44.01-4.85-13.38-12.69-24.92-23.5-34.61-10.83-9.68-25.21-17.09-43.16-22.22-17.95-5.13-40.03-7.69-66.23-7.69s-49.14,2.71-67.09,8.12c-17.95,5.42-32.47,12.82-43.58,22.22-11.11,9.4-19.1,20.94-23.93,34.61-4.85,13.67-7.26,28.5-7.26,44.44ZM90.59,168.36c0,35.33,10.11,61.83,30.34,79.48,20.22,17.67,52.56,26.49,97,26.49s76.77-8.83,97-26.49c20.22-17.65,30.34-44.44,30.34-80.33,0-14.23-2.28-27.91-6.84-41.02-4.57-13.1-11.96-24.49-22.22-34.18-10.26-9.68-23.5-17.37-39.74-23.07-16.24-5.69-35.76-8.55-58.54-8.55s-42.3,2.86-58.54,8.55c-16.24,5.7-29.48,13.54-39.74,23.5-10.26,9.97-17.67,21.51-22.22,34.61-4.57,13.11-6.84,26.79-6.84,41.02Z"/>
  </g>
</svg>