<?xml version="1.0" encoding="UTF-8"?>
<svg id="Ebene_2" data-name="Ebene 2" xmlns="http://www.w3.org/2000/svg" viewBox="0 0 407.65 622.16">
  <g id="Glyphs">
    <path d="M87.17,476.87c5.69,29.06,17.09,49.99,34.18,62.81,17.09,12.82,42.16,19.23,75.21,19.23,22.78,0,42.86-4.27,60.25-12.82,17.37-8.55,31.75-22.5,43.16-41.88,11.39-19.36,19.94-44.29,25.64-74.78,5.69-30.47,8.55-67.94,8.55-112.38-35.89,52.43-87.17,78.62-153.83,78.62-31.91,0-59.11-4.98-81.62-14.96-22.51-9.96-41.17-23.64-55.98-41.02-14.82-17.37-25.64-38.03-32.48-61.96C3.42,253.82,0,228.18,0,200.83c0-29.62,4.83-56.83,14.53-81.62,9.68-24.78,23.35-46,41.02-63.67,17.65-17.65,39.02-31.33,64.1-41.02C144.71,4.85,172.63,0,203.4,0c40.45,0,73.78,8.27,99.99,24.78,26.2,16.53,47,38.18,62.39,64.95,15.38,26.79,26.2,56.98,32.47,90.59,6.26,33.62,9.4,67.23,9.4,100.84,0,47.3-2.86,91.59-8.55,132.89-5.7,41.32-16.38,77.34-32.05,108.11-15.68,30.77-37.04,55.12-64.1,73.07-27.07,17.95-61.96,26.92-104.69,26.92-55.27,0-98.43-11.68-129.47-35.04-31.06-23.35-49.14-60.1-54.27-110.24h72.64ZM195.71,333.3c17.09,0,33.33-2.56,48.71-7.69,15.38-5.13,29.06-12.95,41.02-23.5,11.96-10.54,21.5-24.06,28.63-40.59,7.12-16.52,10.68-36.17,10.68-58.97,0-17.09-2.43-34.04-7.26-50.85-4.85-16.8-12.26-31.9-22.22-45.29-9.97-13.38-22.51-24.06-37.6-32.05-15.1-7.97-33.2-11.96-54.27-11.96-39.31,0-70.51,11.96-93.58,35.89s-34.61,57.26-34.61,99.99c0,18.8,1.99,36.47,5.98,52.99,3.98,16.53,10.68,30.77,20.08,42.73s21.79,21.51,37.18,28.63c15.38,7.13,34.46,10.68,57.26,10.68Z"/>
  </g>
</svg>