<?xml version="1.0" encoding="UTF-8"?>
<svg id="Ebene_2" data-name="Ebene 2" xmlns="http://www.w3.org/2000/svg" viewBox="0 0 375.17 465.76">
  <g id="Glyphs">
    <path d="M303.39,394.83c-15.96,19.38-36.19,36.04-60.68,49.99-24.5,13.95-54.99,20.94-91.44,20.94-22.22,0-42.6-2.71-61.1-8.12-18.52-5.41-34.48-13.67-47.86-24.78-13.39-11.11-23.8-24.92-31.19-41.45-7.41-16.52-11.11-35.89-11.11-58.11,0-30.19,6.41-54.69,19.23-73.5,12.82-18.8,29.91-33.61,51.28-44.44,21.37-10.82,45.43-18.51,72.21-23.07,26.77-4.55,54.4-7.4,82.9-8.55l76.06-2.56v-17.09c0-37.6-7.98-64.66-23.93-81.19-15.96-16.52-41.88-24.78-77.77-24.78s-61.25,5.85-77.77,17.52c-16.53,11.68-27.35,27.77-32.48,48.29l-67.51-7.69c7.97-40.45,27.05-69.93,57.26-88.45C109.67,9.27,150.69,0,202.54,0c31.9,0,58.82,3.85,80.76,11.54,21.93,7.69,39.74,18.67,53.41,32.9,13.67,14.25,23.5,31.91,29.48,52.99,5.98,21.08,8.97,44.73,8.97,70.93v287.15h-71.79v-60.68ZM301.68,234.16l-70.93,2.56c-30.21,1.15-55.27,3.99-75.21,8.55-19.95,4.57-35.76,10.68-47.43,18.37-11.68,7.69-19.95,17.24-24.78,28.63-4.85,11.4-7.26,24.5-7.26,39.31,0,22.22,6.69,40.03,20.08,53.41,13.38,13.39,35.47,20.08,66.23,20.08,43.87,0,78.05-10.82,102.55-32.48,24.49-21.65,36.75-51.28,36.75-88.88v-49.57Z"/>
  </g>
</svg>