<?xml version="1.0" encoding="UTF-8"?>
<svg id="Ebene_2" data-name="Ebene 2" xmlns="http://www.w3.org/2000/svg" viewBox="0 0 410.21 623.87">
  <g id="Glyphs">
    <path d="M0,0h74.35v229.89c18.23-23.93,39.31-42.44,63.24-55.55,23.93-13.1,52.13-19.66,84.61-19.66s58.82,5.7,82.47,17.09c23.64,11.4,43.29,27.35,58.97,47.86,15.66,20.51,27.35,44.87,35.04,73.07s11.54,59.4,11.54,93.58c0,36.47-4.57,69.37-13.67,98.71-9.12,29.35-22.22,54.27-39.31,74.78-17.09,20.51-37.75,36.32-61.96,47.43-24.22,11.11-51.42,16.67-81.62,16.67-25.64,0-50.57-5.27-74.78-15.81-24.22-10.54-46.02-28.63-65.38-54.27v56.4H0V0ZM73.5,401.67c0,28.5,3.27,52.85,9.83,73.07,6.54,20.23,15.52,36.9,26.92,50,11.39,13.11,25.06,22.65,41.02,28.63,15.94,5.98,33.33,8.97,52.13,8.97s35.17-3.12,50.85-9.4c15.66-6.26,29.19-16.37,40.59-30.34,11.39-13.95,20.36-32.05,26.92-54.27,6.54-22.22,9.83-49.27,9.83-81.19s-3.57-59.68-10.68-81.62c-7.13-21.93-16.38-39.45-27.77-52.56-11.4-13.1-24.36-22.5-38.88-28.2-14.53-5.69-29.48-8.55-44.87-8.55-19.38,0-37.32,3.28-53.84,9.83-16.53,6.56-30.91,16.24-43.16,29.06-12.26,12.82-21.79,29.06-28.63,48.71-6.84,19.66-10.26,42.3-10.26,67.94v29.91Z"/>
  </g>
</svg>