<?xml version="1.0" encoding="UTF-8"?>
<svg id="Ebene_2" data-name="Ebene 2" xmlns="http://www.w3.org/2000/svg" viewBox="0 0 437.56 610.19">
  <g id="Glyphs">
    <path d="M0,0h202.54c43.29,0,78.9,4.14,106.83,12.39,27.91,8.27,49.99,19.38,66.23,33.33,16.24,13.97,27.48,30.49,33.76,49.57,6.26,19.1,9.4,39.46,9.4,61.11,0,27.92-6.41,52.99-19.23,75.21s-35.19,40.74-67.09,55.55c20.51,7.99,37.46,17.24,50.85,27.78,13.38,10.55,24.21,22.22,32.48,35.04,8.25,12.82,13.95,26.21,17.09,40.17,3.12,13.97,4.7,28.35,4.7,43.16,0,25.08-3.85,48.29-11.54,69.65-7.69,21.37-20.08,40.03-37.18,55.98-17.09,15.96-39.61,28.5-67.51,37.6-27.92,9.12-62.39,13.67-103.41,13.67H0V0ZM212.8,258.09c46.15,0,79.19-8.4,99.13-25.21,19.94-16.8,29.91-41.45,29.91-73.92s-10.68-56.96-32.05-71.79c-21.37-14.81-57.98-22.22-109.82-22.22h-123.06v193.14h135.88ZM215.36,545.24c27.91,0,51.13-2.56,69.65-7.69,18.51-5.13,33.33-12.39,44.44-21.79,11.11-9.4,18.8-20.79,23.07-34.18,4.27-13.38,6.41-28.63,6.41-45.72,0-35.89-10.55-63.37-31.62-82.47-21.08-19.08-56.4-28.63-105.97-28.63H76.92v220.49h138.45Z"/>
  </g>
</svg>