<?xml version="1.0" encoding="UTF-8"?>
<svg id="Ebene_2" data-name="Ebene 2" xmlns="http://www.w3.org/2000/svg" viewBox="0 0 397.39 469.18">
  <g id="Glyphs">
    <path d="M397.39,305.95c-7.41,50.72-26.79,90.59-58.11,119.65-31.34,29.06-75.5,43.59-132.46,43.59-33.62,0-63.39-5.42-89.31-16.24-25.93-10.82-47.58-26.35-64.95-46.58-17.39-20.22-30.49-44.72-39.31-73.5C4.41,304.11,0,271.77,0,235.87s4.83-67.51,14.53-96.57c9.68-29.06,23.64-53.84,41.88-74.35,18.23-20.51,40.45-36.45,66.66-47.86C149.26,5.7,178.89,0,211.94,0c52.99,0,94.01,12.97,123.06,38.88,29.06,25.93,47.56,61.68,55.55,107.25l-74.35,13.67c-2.86-14.23-6.7-27.35-11.54-39.31-4.85-11.96-11.54-22.35-20.08-31.19-8.55-8.83-18.95-15.66-31.19-20.51-12.26-4.83-26.92-7.26-44.01-7.26-23.37,0-43.3,4.42-59.82,13.25-16.53,8.84-30.06,21.08-40.59,36.75-10.55,15.68-18.24,34.05-23.07,55.12-4.85,21.08-7.26,43.58-7.26,67.51s2.27,46.44,6.84,67.51c4.55,21.08,11.96,39.46,22.22,55.12,10.26,15.68,23.64,28.07,40.17,37.18,16.52,9.12,36.75,13.67,60.68,13.67,35.89,0,62.52-9.11,79.91-27.35,17.37-18.23,28.63-43.01,33.76-74.35h75.21Z"/>
  </g>
</svg>