<?xml version="1.0" encoding="UTF-8"?>
<svg id="Ebene_2" data-name="Ebene 2" xmlns="http://www.w3.org/2000/svg" viewBox="0 0 521.31 640.96">
  <g id="Glyphs">
    <path d="M521.31,424.74c-3.42,30.77-11.11,59.4-23.07,85.89-11.96,26.49-28.2,49.43-48.71,68.8-20.51,19.38-45.44,34.48-74.78,45.29-29.35,10.82-63.39,16.24-102.13,16.24-42.17,0-80.05-7.13-113.66-21.37-33.62-14.23-62.11-35.04-85.46-62.39-23.37-27.35-41.45-60.81-54.27-100.42C6.41,417.2,0,372.05,0,321.33s6.84-96.85,20.51-136.74c13.67-39.87,32.76-73.5,57.26-100.84,24.49-27.35,53.41-48.14,86.74-62.39C197.84,7.13,233.87,0,272.62,0s70.08,4.85,97.43,14.53c27.35,9.69,50.56,23.37,69.65,41.02,19.08,17.67,34.46,38.75,46.15,63.24,11.67,24.5,20.64,51.57,26.92,81.19l-76.92,12.82c-5.13-22.22-11.83-42.3-20.08-60.25-8.27-17.95-18.8-33.18-31.62-45.72-12.82-12.53-28.2-22.07-46.15-28.63-17.95-6.54-39.74-9.83-65.38-9.83-30.21,0-57.13,6.13-80.76,18.37-23.65,12.26-43.59,29.35-59.82,51.28-16.24,21.94-28.63,48.43-37.18,79.48-8.55,31.06-12.82,65.38-12.82,102.98s4.27,71.93,12.82,102.98c8.55,31.06,20.94,57.69,37.18,79.91,16.24,22.22,36.17,39.31,59.82,51.28,23.64,11.96,50.85,17.95,81.62,17.95,27.91,0,51.7-3.55,71.36-10.68,19.66-7.12,35.89-17.23,48.71-30.34,12.82-13.1,22.93-28.76,30.34-47,7.4-18.23,12.82-38.16,16.24-59.82h81.19Z"/>
  </g>
</svg>