<?xml version="1.0" encoding="UTF-8"?>
<svg id="Ebene_2" data-name="Ebene 2" xmlns="http://www.w3.org/2000/svg" viewBox="0 0 408.5 623.87">
  <g id="Glyphs">
    <path d="M335.86,546.95c-18.24,24.5-39.31,43.45-63.24,56.83s-52.13,20.08-84.61,20.08-60.54-5.98-84.18-17.95c-23.65-11.96-43.16-28.34-58.54-49.14-15.38-20.79-26.79-45.43-34.18-73.92-7.41-28.48-11.11-58.97-11.11-91.44,0-36.45,4.55-69.36,13.67-98.71,9.11-29.34,22.07-54.27,38.88-74.78,16.8-20.51,37.31-36.17,61.53-47,24.21-10.82,51.7-16.24,82.47-16.24,23.35,0,47,4.7,70.93,14.1,23.93,9.4,46.15,27.21,66.66,53.41V0h74.35v610.19h-72.64v-63.24ZM336.72,376.03c0-35.32-3.85-62.81-11.54-82.47-7.69-19.66-20.38-36.32-38.03-49.99-12.54-10.26-25.21-17.37-38.03-21.37-12.82-3.98-26.92-5.98-42.3-5.98-18.24,0-35.19,3.14-50.85,9.4-15.68,6.28-29.35,16.38-41.02,30.34-11.68,13.97-20.8,31.91-27.35,53.84-6.56,21.94-9.83,48.58-9.83,79.91s3.55,59.82,10.68,82.04c7.12,22.22,16.52,39.89,28.2,52.99,11.67,13.11,24.78,22.51,39.31,28.2,14.53,5.7,29.48,8.55,44.87,8.55,16.52,0,31.33-1.99,44.44-5.98,13.1-3.98,26.2-10.82,39.31-20.51,17.09-13.67,30.04-30.77,38.88-51.28,8.83-20.51,13.25-46.43,13.25-77.77v-29.91Z"/>
  </g>
</svg>