<?xml version="1.0" encoding="UTF-8"?>
<svg id="Ebene_2" data-name="Ebene 2" xmlns="http://www.w3.org/2000/svg" viewBox="0 0 497.38 610.19">
  <g id="Glyphs">
    <path d="M0,0h213.65c44.44,0,84.18,6.13,119.22,18.37,35.04,12.26,64.66,30.91,88.88,55.98,24.21,25.08,42.86,56.4,55.98,94.01,13.1,37.6,19.66,81.76,19.66,132.46s-6.98,96.29-20.94,135.03c-13.97,38.75-34.05,70.93-60.25,96.57-26.21,25.64-58.11,45.01-95.72,58.11-37.6,13.11-79.77,19.66-126.48,19.66H0V0ZM197.42,541.82c75.77,0,131.04-21.22,165.79-63.67,34.75-42.44,52.13-100.98,52.13-175.62,0-37.03-3.85-70.08-11.54-99.13s-19.66-53.69-35.89-73.92c-16.24-20.22-37.18-35.6-62.81-46.15-25.64-10.54-56.12-15.81-91.44-15.81H78.62v474.31h118.79Z"/>
  </g>
</svg>