<?xml version="1.0" encoding="UTF-8"?>
<svg id="Ebene_2" data-name="Ebene 2" xmlns="http://www.w3.org/2000/svg" viewBox="0 0 403.38 469.18">
  <g id="Glyphs">
    <path d="M396.54,331.59c-7.41,42.73-26.36,76.35-56.83,100.84-30.49,24.49-74.22,36.75-131.18,36.75-67.23,0-118.79-20.36-154.68-61.1C17.95,367.35,0,310.52,0,237.58c0-38.16,5.13-72.07,15.38-101.7,10.26-29.62,24.64-54.4,43.16-74.35,18.51-19.94,40.59-35.17,66.23-45.72C150.41,5.27,178.32,0,208.53,0c34.18,0,63.52,5.42,88.02,16.24,24.49,10.83,44.57,25.79,60.25,44.87,15.66,19.1,27.35,41.74,35.04,67.94,7.69,26.21,11.54,54.99,11.54,86.32v37.6H75.21c0,22.22,2.99,42.88,8.97,61.96,5.98,19.1,14.53,35.61,25.64,49.57,11.11,13.97,24.92,24.93,41.45,32.9,16.52,7.99,35.6,11.96,57.26,11.96,37.03,0,64.1-6.97,81.19-20.94,17.09-13.95,28.76-32.9,35.04-56.83h71.79ZM329.03,197.42c0-21.07-2.28-40.17-6.84-57.26-4.57-17.09-11.68-31.75-21.37-44.01-9.69-12.25-22.22-21.79-37.6-28.63-15.38-6.84-33.9-10.26-55.55-10.26-39.31,0-69.94,11.96-91.87,35.89-21.94,23.93-34.91,58.69-38.88,104.26h252.11Z"/>
  </g>
</svg>