<?xml version="1.0" encoding="UTF-8"?>
<svg id="Ebene_2" data-name="Ebene 2" xmlns="http://www.w3.org/2000/svg" viewBox="0 0 278.6 617.03">
  <g id="Glyphs">
    <path d="M69.22,234.16H0v-58.97h69.22v-38.46c0-23.93,3.55-44.44,10.68-61.53,7.12-17.09,16.8-31.19,29.06-42.3,12.25-11.11,26.49-19.36,42.73-24.78C167.93,2.71,185.16,0,203.4,0c13.1,0,25.64.72,37.6,2.14,11.96,1.43,24.49,4.14,37.6,8.12l-11.96,58.11c-9.12-2.84-17.81-4.7-26.07-5.56-8.27-.85-16.38-1.28-24.36-1.28-19.95,0-37.04,5.27-51.28,15.81-14.25,10.55-21.37,29.78-21.37,57.69v40.17h111.95v58.97h-111.95v382.87h-74.35V234.16Z"/>
  </g>
</svg>