<?xml version="1.0" encoding="UTF-8"?>
<svg id="Ebene_2" data-name="Ebene 2" xmlns="http://www.w3.org/2000/svg" viewBox="0 0 409.36 630.7">
  <g id="Glyphs">
    <path d="M90.59,496.53c6.26,26.77,18.37,45.85,36.32,57.26,17.95,11.39,46,17.09,84.18,17.09,46.71,0,79.05-12.97,97-38.88,17.95-25.93,26.92-63.67,26.92-113.24v-47c-17.09,23.93-37.75,42.45-61.96,55.55-24.22,13.11-52.56,19.66-85.03,19.66s-59.69-5.84-83.32-17.52c-23.65-11.67-43.16-27.63-58.54-47.86-15.38-20.22-26.92-43.72-34.61-70.51C3.85,284.31,0,255.53,0,224.76c0-33.61,4.55-64.23,13.67-91.87,9.11-27.63,22.22-51.28,39.31-70.93,17.09-19.66,37.74-34.89,61.96-45.72C139.15,5.42,166.36,0,196.56,0c24.49,0,48.85,4.99,73.07,14.96,24.21,9.97,46.28,28.35,66.23,55.12V13.67h73.5v370.05c0,38.18-2.71,72.49-8.12,102.98-5.42,30.47-15.38,56.4-29.91,77.77-14.53,21.37-34.61,37.74-60.25,49.14-25.64,11.39-58.69,17.09-99.13,17.09-58.11,0-103.7-10.4-136.74-31.19-33.05-20.8-52.43-55.12-58.11-102.98h73.5ZM336.72,217.93c0-29.06-3.42-53.41-10.26-73.07-6.84-19.66-16.24-35.75-28.2-48.29-11.96-12.53-25.79-21.5-41.45-26.92-15.68-5.41-32.05-8.12-49.14-8.12-18.24,0-35.19,2.99-50.85,8.97-15.68,5.98-29.35,15.53-41.02,28.63-11.68,13.11-20.8,29.91-27.35,50.42-6.56,20.51-9.83,45.29-9.83,74.35s3.55,54.7,10.68,75.21c7.12,20.51,16.37,37.04,27.78,49.57,11.39,12.54,24.64,21.66,39.74,27.35,15.09,5.7,30.34,8.55,45.72,8.55,19.36,0,37.18-3.12,53.41-9.4,16.24-6.26,30.34-15.66,42.3-28.2,11.96-12.53,21.37-28.34,28.2-47.43,6.84-19.08,10.26-41.45,10.26-67.09v-14.53Z"/>
  </g>
</svg>