<?xml version="1.0" encoding="UTF-8"?>
<svg id="Ebene_2" data-name="Ebene 2" xmlns="http://www.w3.org/2000/svg" viewBox="0 0 517.04 640.96">
  <g id="Glyphs">
    <path d="M288.86,311.93h228.18v244.42c-15.38,14.25-32.34,26.64-50.85,37.18-18.52,10.55-37.9,19.38-58.11,26.49-20.23,7.12-41.02,12.39-62.39,15.81s-42.3,5.13-62.81,5.13c-45.01,0-85.03-7.26-120.07-21.79s-64.67-35.47-88.88-62.81c-24.22-27.35-42.6-60.81-55.12-100.42C6.26,416.34,0,371.48,0,321.33s6.84-96.85,20.51-136.74c13.67-39.87,32.61-73.5,56.83-100.84,24.21-27.35,53.12-48.14,86.74-62.39C197.7,7.13,234.44,0,274.33,0c34.19,0,64.38,4.14,90.59,12.39,26.2,8.27,48.57,20.08,67.09,35.47,18.51,15.38,33.76,33.76,45.72,55.12s21.07,45.16,27.35,71.36l-76.06,12.82c-4.57-17.65-10.68-33.89-18.38-48.71-7.69-14.81-17.52-27.48-29.48-38.03-11.96-10.54-26.64-18.65-44.01-24.36-17.39-5.69-38.32-8.55-62.81-8.55-31.91,0-59.82,6.13-83.75,18.37-23.93,12.26-43.88,29.48-59.82,51.7-15.96,22.22-28.07,48.86-36.32,79.91-8.27,31.06-12.39,65.38-12.39,102.98s3.98,71.93,11.96,102.98c7.97,31.06,20.36,57.69,37.18,79.91,16.8,22.22,37.74,39.31,62.81,51.28,25.06,11.96,54.7,17.95,88.88,17.95,30.77,0,59.68-3.7,86.74-11.11,27.05-7.4,51.41-19.08,73.07-35.04v-146.14h-153.83v-68.37Z"/>
  </g>
</svg>