<?xml version="1.0" encoding="UTF-8"?>
<svg id="Ebene_2" data-name="Ebene 2" xmlns="http://www.w3.org/2000/svg" viewBox="0 0 376.03 610.19">
  <g id="Glyphs">
    <path d="M0,0h74.35v234.16c21.65-27.91,45.43-48.14,71.36-60.68,25.92-12.53,53.41-18.8,82.47-18.8,50.13,0,87.3,13.67,111.53,41.02,24.21,27.35,36.32,67.51,36.32,120.5v293.99h-75.21v-279.46c0-41.02-7.26-69.93-21.79-86.74-14.53-16.8-37.18-25.21-67.94-25.21-16.53,0-32.9,2.86-49.14,8.55-16.24,5.7-30.91,14.82-44.01,27.35-14.25,12.54-25.08,25.79-32.47,39.74-7.41,13.97-11.11,32.05-11.11,54.27v261.51H0V0Z"/>
  </g>
</svg>