<?xml version="1.0" encoding="UTF-8"?>
<svg id="Ebene_2" data-name="Ebene 2" xmlns="http://www.w3.org/2000/svg" viewBox="0 0 205.11 769.15">
  <g id="Glyphs">
    <path d="M12.82,696.51c7.99,2.84,16.67,4.98,26.07,6.41,9.4,1.42,20.08,2.14,32.05,2.14,21.07,0,35.89-5.7,44.44-17.09,8.55-11.4,12.82-29.06,12.82-52.99V168.36h74.35v446.96c0,22.22-1.71,42.73-5.13,61.53-3.42,18.8-9.55,35.04-18.37,48.71-8.84,13.67-21.08,24.36-36.75,32.05-15.68,7.69-35.47,11.54-59.4,11.54-17.65,0-33.04-1.28-46.15-3.85-13.1-2.56-25.34-5.85-36.75-9.83l12.82-58.97ZM125.63,0h79.48v86.32h-79.48V0Z"/>
  </g>
</svg>