<?xml version="1.0" encoding="UTF-8"?>
<svg id="Ebene_2" data-name="Ebene 2" xmlns="http://www.w3.org/2000/svg" viewBox="0 0 425.6 625.58">
  <g id="Glyphs">
    <path d="M79.48,427.31c2.27,18.8,6.26,36.19,11.96,52.13,5.69,15.96,13.81,29.63,24.36,41.02,10.54,11.4,23.93,20.38,40.17,26.92,16.24,6.56,36.32,9.83,60.25,9.83,47.86,0,81.62-13.38,101.27-40.17,19.66-26.77,29.48-64.66,29.48-113.66V0h78.62v409.36c0,72.36-18.52,126.48-55.55,162.38-37.04,35.89-87.74,53.84-152.12,53.84s-114.52-15.94-152.12-47.86C28.2,545.82,6.26,495.67,0,427.31h79.48Z"/>
  </g>
</svg>