<?xml version="1.0" encoding="UTF-8"?>
<svg id="Ebene_2" data-name="Ebene 2" xmlns="http://www.w3.org/2000/svg" viewBox="0 0 623.87 455.51">
  <g id="Glyphs">
    <path d="M0,13.67h73.5v67.51c19.94-27.35,41.88-47.71,65.81-61.1C163.23,6.7,187.72,0,212.8,0c33.04,0,59.68,7.13,79.91,21.37,20.22,14.25,35.17,34.76,44.87,61.53,19.94-27.35,42.73-47.99,68.37-61.96C431.58,6.98,458.93,0,487.98,0c43.29,0,76.77,11.83,100.42,35.47,23.63,23.65,35.47,61.68,35.47,114.09v305.95h-74.35V166.65c0-19.94-1.71-36.6-5.13-50-3.42-13.38-8.41-23.93-14.96-31.62-6.56-7.69-14.68-13.1-24.36-16.24-9.69-3.12-20.8-4.7-33.33-4.7s-26.79,2.28-41.02,6.84c-14.25,4.57-28.2,12.54-41.88,23.93-11.4,9.69-20.8,21.37-28.2,35.04-7.41,13.67-11.11,29.35-11.11,47v278.6h-74.35V167.5c0-38.74-6.7-65.66-20.08-80.76-13.39-15.09-32.62-22.65-57.69-22.65-29.06,0-56.4,11.96-82.04,35.89-9.7,9.12-18.95,20.8-27.78,35.04-8.84,14.25-13.25,33.33-13.25,57.26v263.22H0V13.67Z"/>
  </g>
</svg>