<?xml version="1.0" encoding="UTF-8"?>
<svg id="Ebene_2" data-name="Ebene 2" xmlns="http://www.w3.org/2000/svg" viewBox="0 0 376.03 455.51">
  <g id="Glyphs">
    <path d="M0,13.67h73.5v67.51c21.65-29.06,45.57-49.85,71.79-62.39C171.48,6.28,199.12,0,228.18,0c50.13,0,87.3,13.67,111.53,41.02,24.21,27.35,36.32,67.51,36.32,120.5v293.99h-74.35V176.05c0-41.02-7.41-69.93-22.22-86.74-14.82-16.8-37.6-25.21-68.37-25.21-16.53,0-32.9,2.86-49.14,8.55-16.24,5.7-30.91,14.82-44.01,27.35-14.25,12.54-25.08,25.79-32.48,39.74-7.41,13.97-11.11,32.05-11.11,54.27v261.51H0V13.67Z"/>
  </g>
</svg>