<?xml version="1.0" encoding="UTF-8"?>
<svg id="Ebene_2" data-name="Ebene 2" xmlns="http://www.w3.org/2000/svg" viewBox="0 0 428.16 469.18">
  <g id="Glyphs">
    <path d="M212.8,469.18c-33.62,0-63.54-5.42-89.73-16.24-26.21-10.82-48.43-26.2-66.66-46.15-18.24-19.94-32.19-44.44-41.88-73.5C4.83,304.24,0,271.77,0,235.87s5.13-68.37,15.38-97.43c10.26-29.06,24.78-53.84,43.59-74.35,18.8-20.51,41.45-36.32,67.94-47.43S182.89,0,215.36,0s62.67,5.42,88.88,16.24c26.2,10.83,48.57,26.36,67.09,46.58,18.51,20.23,32.61,44.59,42.3,73.07,9.68,28.5,14.53,60.68,14.53,96.57s-4.99,69.22-14.96,98.28c-9.98,29.06-24.22,53.84-42.73,74.35-18.52,20.51-41.17,36.32-67.94,47.43-26.79,11.11-56.7,16.67-89.73,16.67ZM213.65,407.65c23.93,0,44.44-4.27,61.53-12.82,17.09-8.55,31.19-20.51,42.3-35.89,11.11-15.38,19.23-33.76,24.36-55.12s7.69-44.87,7.69-70.51-2.56-48.14-7.69-69.22c-5.13-21.07-13.25-39.17-24.36-54.27-11.11-15.09-25.21-26.92-42.3-35.47-17.09-8.55-37.6-12.82-61.53-12.82s-44.31,4.27-61.1,12.82c-16.81,8.55-30.77,20.38-41.88,35.47-11.11,15.1-19.23,33.2-24.36,54.27-5.13,21.08-7.69,44.44-7.69,70.08s2.56,49.01,7.69,70.08c5.13,21.08,13.1,39.31,23.93,54.69,10.82,15.38,24.78,27.35,41.88,35.89,17.09,8.55,37.6,12.82,61.53,12.82Z"/>
  </g>
</svg>