<?xml version="1.0" encoding="UTF-8"?>
<svg id="Ebene_2" data-name="Ebene 2" xmlns="http://www.w3.org/2000/svg" viewBox="0 0 561.48 640.96">
  <g id="Glyphs">
    <path d="M281.17,640.96c-41.6,0-79.63-6.98-114.09-20.94-34.48-13.95-64.1-34.46-88.88-61.53-24.78-27.05-44.01-60.53-57.69-100.42C6.84,418.2,0,372.61,0,321.33s6.97-96.85,20.94-136.74c13.95-39.87,33.33-73.5,58.11-100.84s54.4-48.14,88.88-62.39C202.4,7.13,240.15,0,281.17,0s79.61,6.98,114.09,20.94c34.46,13.97,63.95,34.48,88.45,61.53,24.49,27.07,43.59,60.4,57.26,99.99,13.67,39.61,20.51,85.03,20.51,136.31s-6.7,97-20.08,137.17c-13.39,40.17-32.34,73.92-56.83,101.27-24.5,27.35-53.99,48.15-88.45,62.39-34.48,14.24-72.79,21.37-114.95,21.37ZM281.17,572.59c32.48,0,61.1-5.98,85.89-17.95,24.78-11.96,45.43-28.91,61.96-50.85,16.52-21.93,29.06-48.42,37.6-79.48,8.55-31.05,12.82-65.66,12.82-103.83s-4.27-71.92-12.82-102.98c-8.55-31.05-21.23-57.69-38.03-79.91-16.81-22.22-37.47-39.31-61.96-51.28-24.5-11.96-52.99-17.95-85.46-17.95s-61.96,5.98-86.74,17.95c-24.78,11.96-45.59,29.06-62.39,51.28-16.81,22.22-29.35,48.86-37.6,79.91-8.27,31.06-12.39,65.38-12.39,102.98s4.13,72.79,12.39,103.83c8.25,31.06,20.64,57.55,37.18,79.48,16.52,21.94,37.18,38.88,61.96,50.85,24.78,11.96,53.97,17.95,87.6,17.95Z"/>
  </g>
</svg>