<?xml version="1.0" encoding="UTF-8"?>
<svg id="Ebene_2" data-name="Ebene 2" xmlns="http://www.w3.org/2000/svg" viewBox="0 0 429.87 610.19">
  <g id="Glyphs">
    <path d="M0,0h204.25c45,0,82.18,4.85,111.53,14.53,29.34,9.69,52.41,22.79,69.22,39.31,16.8,16.53,28.48,35.76,35.04,57.69,6.54,21.94,9.83,45.16,9.83,69.65s-3.42,50.14-10.26,73.5c-6.84,23.37-18.8,43.88-35.89,61.53-17.09,17.67-40.17,31.62-69.22,41.88-29.06,10.25-65.81,15.38-110.24,15.38h-126.48v236.73H0V0ZM203.4,306.81c29.62,0,54.12-2.84,73.5-8.55,19.36-5.69,34.46-13.95,45.29-24.78,10.82-10.82,18.37-23.78,22.65-38.88,4.27-15.09,6.41-32.05,6.41-50.85s-2.28-36.45-6.84-51.28c-4.57-14.81-12.54-27.05-23.93-36.75-11.4-9.68-26.64-16.95-45.72-21.79-19.09-4.83-43.16-7.26-72.21-7.26h-124.77v240.15h125.63Z"/>
  </g>
</svg>