<?xml version="1.0" encoding="UTF-8"?>
<svg id="Ebene_2" data-name="Ebene 2" xmlns="http://www.w3.org/2000/svg" viewBox="0 0 409.36 621.3">
  <g id="Glyphs">
    <path d="M335.01,393.12c-18.24,23.93-39.31,42.6-63.24,55.98s-51.85,20.08-83.75,20.08-60.54-5.98-84.18-17.95c-23.65-11.96-43.16-28.34-58.54-49.14-15.38-20.79-26.79-45.43-34.18-73.92C3.7,299.69,0,269.2,0,236.73c0-36.45,4.55-69.36,13.67-98.71,9.11-29.34,22.07-54.27,38.88-74.78,16.8-20.51,37.31-36.17,61.53-47C138.3,5.42,165.79,0,196.56,0c23.93,0,47.99,4.85,72.21,14.53,24.21,9.69,46.58,28.2,67.09,55.55V13.67h73.5v607.63h-74.35v-228.18ZM336.72,221.34c0-35.32-3.85-62.81-11.54-82.47-7.69-19.66-20.08-36.32-37.18-49.99-13.11-10.26-26.07-17.37-38.88-21.37-12.82-3.98-26.92-5.98-42.3-5.98-18.24,0-35.19,3.14-50.85,9.4-15.68,6.28-29.35,16.38-41.02,30.34-11.68,13.97-20.8,31.91-27.35,53.84-6.56,21.94-9.83,48.58-9.83,79.91s3.55,59.82,10.68,82.04c7.12,22.22,16.52,39.89,28.2,52.99,11.67,13.11,24.92,22.51,39.74,28.2,14.81,5.7,29.91,8.55,45.29,8.55,16.52,0,31.19-1.99,44.01-5.98,12.82-3.98,25.77-10.82,38.88-20.51,16.52-13.67,29.34-30.77,38.46-51.28,9.11-20.51,13.67-46.43,13.67-77.77v-29.91Z"/>
  </g>
</svg>