<?xml version="1.0" encoding="UTF-8"?>
<svg id="Ebene_2" data-name="Ebene 2" xmlns="http://www.w3.org/2000/svg" viewBox="0 0 241.85 449.53">
  <g id="Glyphs">
    <path d="M0,7.69h73.5v68.37c16.52-24.49,35.89-43.29,58.11-56.4C153.83,6.56,177.46,0,202.54,0c15.38,0,28.48,1.15,39.31,3.42l-9.4,69.22c-5.7-1.14-11.4-2.14-17.09-2.99-5.7-.85-11.96-1.28-18.8-1.28-13.67,0-27.64,2.43-41.88,7.26-14.25,4.85-27.64,12.97-40.17,24.36-12.54,10.83-22.37,23.37-29.48,37.6-7.13,14.25-10.68,30.77-10.68,49.57v262.37H0V7.69Z"/>
  </g>
</svg>