<?xml version="1.0" encoding="UTF-8"?>
<svg id="Ebene_2" data-name="Ebene 2" xmlns="http://www.w3.org/2000/svg" viewBox="0 0 448.67 610.19">
  <g id="Glyphs">
    <path d="M0,0h199.98c45.57,0,82.9,5.13,111.95,15.38,29.06,10.26,51.98,23.5,68.8,39.74,16.8,16.24,28.34,34.61,34.61,55.12,6.26,20.51,9.4,41.31,9.4,62.39,0,38.75-8.12,71.79-24.36,99.14-16.24,27.35-42.88,48.71-79.91,64.1l128.19,274.33h-88.02l-115.37-255.53c-7.41,1.15-15.38,1.86-23.93,2.14-8.55.29-16.24.43-23.07.43h-120.5v252.96H0V0ZM207.67,289.71c27.35,0,49.85-2.7,67.51-8.12,17.65-5.41,31.62-13.1,41.88-23.07,10.26-9.96,17.37-22.07,21.37-36.32,3.98-14.23,5.98-30.19,5.98-47.86s-2.28-32.18-6.84-45.29c-4.57-13.1-12.39-24.36-23.5-33.76-11.11-9.4-26.07-16.52-44.87-21.37-18.8-4.83-42.73-7.26-71.79-7.26h-119.65v223.05h129.9Z"/>
  </g>
</svg>