<?xml version="1.0" encoding="UTF-8"?>
<svg id="Ebene_2" data-name="Ebene 2" xmlns="http://www.w3.org/2000/svg" viewBox="0 0 375.17 469.18">
  <g id="Glyphs">
    <path d="M71.79,326.46c5.13,30.77,18.08,52.28,38.88,64.52,20.79,12.26,49.14,18.37,85.03,18.37s64.23-6.41,79.91-19.23c15.66-12.82,23.5-29.76,23.5-50.85,0-8.55-1-16.67-2.99-24.36-2-7.69-5.85-14.53-11.54-20.51-5.7-5.98-13.67-11.24-23.93-15.81-10.26-4.55-23.65-8.25-40.17-11.11l-56.4-8.55c-25.08-3.98-47-9.11-65.81-15.38-18.8-6.26-34.76-14.38-47.86-24.36-13.11-9.96-22.94-22.22-29.48-36.75-6.56-14.53-9.83-32.05-9.83-52.56s4.41-38.74,13.25-54.69c8.83-15.94,21.07-29.48,36.75-40.59,15.66-11.11,34.18-19.66,55.55-25.64C138.02,2.99,161.23,0,186.31,0c31.9,0,58.54,3.14,79.91,9.4,21.37,6.28,38.88,14.82,52.56,25.64,13.67,10.83,24.21,23.65,31.62,38.46,7.4,14.82,13.1,30.49,17.09,47l-67.51,11.11c-3.99-11.96-8.55-22.5-13.67-31.62-5.13-9.11-11.96-16.67-20.51-22.65-8.55-5.98-18.95-10.54-31.19-13.67-12.26-3.12-27.49-4.7-45.72-4.7-20.51,0-37.6,1.86-51.28,5.56-13.67,3.71-24.65,8.69-32.9,14.96-8.27,6.28-14.1,13.25-17.52,20.94-3.42,7.69-5.13,15.81-5.13,24.36,0,9.12,1.13,17.24,3.42,24.36,2.27,7.13,6.54,13.39,12.82,18.8,6.26,5.42,14.81,10.12,25.64,14.1,10.82,3.99,24.78,7.41,41.88,10.26l64.1,10.26c51.84,8.55,89.01,23.37,111.53,44.44,22.5,21.08,33.76,51.85,33.76,92.3,0,18.8-3.71,36.04-11.11,51.7-7.41,15.68-18.52,29.35-33.33,41.02-14.82,11.68-33.33,20.8-55.55,27.35-22.22,6.54-48.15,9.83-77.77,9.83-26.79,0-51.7-2.56-74.78-7.69-23.07-5.13-43.45-13.25-61.1-24.36-17.67-11.11-31.91-25.77-42.73-44.01C7.97,374.89,1.71,352.67,0,326.46h71.79Z"/>
  </g>
</svg>