<?xml version="1.0" encoding="UTF-8"?>
<svg id="Ebene_2" data-name="Ebene 2" xmlns="http://www.w3.org/2000/svg" viewBox="0 0 474.31 640.96">
  <g id="Glyphs">
    <path d="M78.62,452.09c6.84,42.73,23.78,73.64,50.85,92.73,27.05,19.1,67.37,28.63,120.93,28.63,26.77,0,49.14-2.99,67.09-8.97,17.95-5.98,32.33-13.95,43.16-23.93,10.82-9.96,18.51-21.65,23.07-35.04,4.55-13.38,6.84-27.48,6.84-42.3,0-11.96-1.43-23.5-4.27-34.61-2.86-11.11-8.41-21.22-16.66-30.34-8.27-9.11-19.66-17.09-34.18-23.93s-33.2-12.24-55.98-16.24l-76.92-13.67c-30.21-5.13-56.98-11.96-80.33-20.51-23.37-8.55-43.16-19.51-59.4-32.9-16.24-13.38-28.5-30.04-36.75-50-8.27-19.94-12.39-44.15-12.39-72.64s5.84-52.41,17.52-73.5c11.67-21.07,27.48-38.74,47.43-52.99,19.94-14.23,43.59-24.78,70.93-31.62C176.9,3.42,206.52,0,238.44,0c40.45,0,74.2,4.42,101.27,13.25,27.05,8.84,49.14,20.66,66.23,35.47,17.09,14.82,30.04,31.77,38.88,50.85,8.83,19.1,15.52,38.6,20.08,58.54l-73.5,14.53c-4.57-17.09-10.4-32.33-17.52-45.72-7.13-13.38-16.53-24.49-28.2-33.33-11.68-8.83-26.07-15.52-43.16-20.08-17.09-4.55-37.9-6.84-62.39-6.84-27.92,0-51.28,2.56-70.08,7.69s-33.9,12.11-45.29,20.94c-11.4,8.84-19.52,19.38-24.36,31.62-4.85,12.26-7.26,25.21-7.26,38.88,0,14.82,1.84,27.77,5.56,38.88,3.7,11.11,9.96,20.8,18.8,29.06,8.83,8.27,20.36,15.1,34.61,20.51,14.23,5.42,31.9,10.12,52.99,14.1l85.46,15.38c63.24,11.96,109.67,31.77,139.3,59.4,29.62,27.64,44.44,68.24,44.44,121.78,0,24.5-4.7,47.43-14.1,68.8-9.4,21.37-23.37,40.03-41.88,55.98-18.52,15.96-41.74,28.5-69.65,37.6-27.92,9.11-60.68,13.67-98.28,13.67s-68.52-3.56-97.85-10.68c-29.35-7.12-54.84-18.37-76.49-33.76-21.66-15.38-39.03-35.04-52.13-58.97-13.11-23.93-21.08-52.41-23.93-85.46h78.62Z"/>
  </g>
</svg>