<?xml version="1.0" encoding="UTF-8"?>
<svg id="Ebene_2" data-name="Ebene 2" xmlns="http://www.w3.org/2000/svg" viewBox="0 0 273.48 571.73">
  <g id="Glyphs">
    <path d="M68.37,179.47H0v-58.97h68.37V0h74.35v120.5h117.08v58.97h-117.08v258.95c0,21.66,4.83,39.03,14.53,52.13,9.68,13.11,24.49,19.66,44.44,19.66,12.53,0,23.5-.85,32.9-2.56,9.4-1.71,18.08-3.98,26.07-6.84l12.82,57.26c-11.4,3.99-23.79,7.26-37.17,9.83-13.39,2.56-29.2,3.85-47.43,3.85-25.08,0-45.29-3.71-60.68-11.11-15.38-7.4-27.64-17.95-36.75-31.62-9.12-13.67-15.25-29.91-18.37-48.71-3.14-18.8-4.7-39.31-4.7-61.53v-239.29Z"/>
  </g>
</svg>