<?xml version="1.0" encoding="UTF-8"?>
<svg id="Ebene_2" data-name="Ebene 2" xmlns="http://www.w3.org/2000/svg" viewBox="0 0 367.48 455.51">
  <g id="Glyphs">
    <path d="M0,0h74.35v278.6c0,41.02,6.69,70.08,20.08,87.17,13.38,17.09,35.17,25.64,65.38,25.64,33.04,0,62.95-11.96,89.73-35.89,14.23-12.53,25.06-25.77,32.48-39.74,7.4-13.95,11.11-32.05,11.11-54.27V0h74.35v441.83h-73.5v-68.37c-21.66,28.5-45.01,49.29-70.08,62.39-25.08,13.1-52.13,19.66-81.19,19.66-50.14,0-86.46-13.54-108.96-40.59C11.24,387.86,0,347.27,0,293.13V0Z"/>
  </g>
</svg>