<?xml version="1.0" encoding="UTF-8"?>
<svg id="Ebene_2" data-name="Ebene 2" xmlns="http://www.w3.org/2000/svg" viewBox="0 0 461.49 625.58">
  <g id="Glyphs">
    <path d="M0,0h78.62v368.34c0,63.24,11.82,110.54,35.47,141.87,23.64,31.34,62.81,47,117.51,47s94.29-15.81,117.08-47.43c22.78-31.62,34.18-78.76,34.18-141.44V0h78.62v368.34c0,45.59-5.28,84.47-15.81,116.65-10.55,32.19-25.64,58.83-45.29,79.91-19.66,21.08-43.88,36.47-72.64,46.15-28.78,9.68-61.1,14.53-97,14.53-73.5,0-130.33-20.51-170.49-61.53C20.08,523.02,0,456.66,0,364.92V0Z"/>
  </g>
</svg>