<?xml version="1.0" encoding="UTF-8"?>
<svg id="Ebene_2" data-name="Ebene 2" xmlns="http://www.w3.org/2000/svg" viewBox="0 0 435 607.63">
  <g id="Glyphs">
    <path d="M49.57,535.84c15.94,5.69,31.9,8.55,47.86,8.55,18.23,0,32.33-4.7,42.3-14.1,9.96-9.4,19.79-26.92,29.48-52.56l17.95-47L0,0h86.32l139.3,346.97L352.95,0h82.04l-193.14,483.71c-7.99,19.94-15.96,37.46-23.93,52.56-7.99,15.09-16.81,28.06-26.49,38.88-9.69,10.82-21.23,18.94-34.61,24.36-13.39,5.41-29.78,8.12-49.14,8.12-13.67,0-25.93-.85-36.75-2.56-10.83-1.71-22.79-4.85-35.89-9.4l14.53-59.82Z"/>
  </g>
</svg>